IBM Plex Sans Thai-Regular.ufo
<glyph name="six" format="1">
  <advance width="600"/>
  <unicode hex="0036"/>
  <outline>
    <contour>
      <point x="301" y="-12" type="curve" smooth="yes" name="hr00"/>
      <point x="441" y="-12"/>
      <point x="533" y="82"/>
      <point x="533" y="219" type="curve" smooth="yes"/>
      <point x="533" y="351"/>
      <point x="447" y="434"/>
      <point x="327" y="434" type="curve" smooth="yes"/>
      <point x="242" y="434"/>
      <point x="192" y="391"/>
      <point x="159" y="334" type="curve"/>
      <point x="154" y="336" type="line"/>
      <point x="192" y="498"/>
      <point x="275" y="589"/>
      <point x="424" y="698" type="curve"/>
      <point x="316" y="698" type="line"/>
      <point x="204" y="625"/>
      <point x="67" y="463"/>
      <point x="67" y="256" type="curve" smooth="yes"/>
      <point x="67" y="90"/>
      <point x="156" y="-12"/>
    </contour>
    <contour>
      <point x="300" y="61" type="curve" smooth="yes"/>
      <point x="208" y="61"/>
      <point x="154" y="114"/>
      <point x="154" y="208" type="curve" smooth="yes"/>
      <point x="154" y="216" type="line" smooth="yes"/>
      <point x="154" y="310"/>
      <point x="208" y="363"/>
      <point x="300" y="363" type="curve" smooth="yes"/>
      <point x="392" y="363"/>
      <point x="446" y="310"/>
      <point x="446" y="216" type="curve" smooth="yes"/>
      <point x="446" y="208" type="line" smooth="yes"/>
      <point x="446" y="114"/>
      <point x="392" y="61"/>
    </contour>
  </outline>
</glyph>
<glyph name="greater" format="1">
  <advance width="600"/>
  <unicode hex="003E"/>
  <outline>
    <contour>
      <point x="90" y="-12" type="line" name="hr00"/>
      <point x="510" y="237" type="line"/>
      <point x="510" y="317" type="line"/>
      <point x="90" y="566" type="line"/>
      <point x="90" y="482" type="line"/>
      <point x="435" y="281" type="line"/>
      <point x="435" y="273" type="line"/>
      <point x="90" y="72" type="line"/>
    </contour>
  </outline>
</glyph>
<glyph name="at" format="1">
  <advance width="891"/>
  <unicode hex="0040"/>
  <outline>
    <contour>
      <point x="679" y="-60" type="line" name="hr00"/>
      <point x="448" y="-60" type="line" smooth="yes"/>
      <point x="259" y="-60"/>
      <point x="132" y="73"/>
      <point x="132" y="262" type="curve" smooth="yes"/>
      <point x="132" y="321" type="line" smooth="yes"/>
      <point x="132" y="505"/>
      <point x="264" y="648"/>
      <point x="455" y="648" type="curve" smooth="yes"/>
      <point x="627" y="648"/>
      <point x="760" y="532"/>
      <point x="760" y="356" type="curve" smooth="yes"/>
      <point x="760" y="310" type="line" smooth="yes"/>
      <point x="760" y="199"/>
      <point x="727" y="130"/>
      <point x="665" y="130" type="curve" smooth="yes"/>
      <point x="628" y="130"/>
      <point x="610" y="144"/>
      <point x="610" y="196" type="curve" smooth="yes"/>
      <point x="610" y="500" type="line"/>
      <point x="541" y="500" type="line"/>
      <point x="541" y="432" type="line"/>
      <point x="537" y="432" type="line"/>
      <point x="519" y="475"/>
      <point x="484" y="509"/>
      <point x="423" y="509" type="curve" smooth="yes"/>
      <point x="330" y="509"/>
      <point x="249" y="438"/>
      <point x="249" y="289" type="curve" smooth="yes"/>
      <point x="249" y="140"/>
      <point x="330" y="69"/>
      <point x="423" y="69" type="curve" smooth="yes"/>
      <point x="484" y="69"/>
      <point x="521" y="102"/>
      <point x="547" y="155" type="curve"/>
      <point x="551" y="155" type="line"/>
      <point x="557" y="104"/>
      <point x="589" y="69"/>
      <point x="652" y="69" type="curve" smooth="yes"/>
      <point x="778" y="69"/>
      <point x="826" y="185"/>
      <point x="826" y="323" type="curve" smooth="yes"/>
      <point x="826" y="599"/>
      <point x="644" y="708"/>
      <point x="456" y="708" type="curve" smooth="yes"/>
      <point x="220" y="708"/>
      <point x="65" y="536"/>
      <point x="65" y="288" type="curve" smooth="yes"/>
      <point x="65" y="41"/>
      <point x="217" y="-121"/>
      <point x="447" y="-121" type="curve" smooth="yes"/>
      <point x="679" y="-121" type="line"/>
    </contour>
    <contour>
      <point x="437" y="135" type="curve" smooth="yes"/>
      <point x="366" y="135"/>
      <point x="333" y="180"/>
      <point x="333" y="249" type="curve" smooth="yes"/>
      <point x="333" y="329" type="line" smooth="yes"/>
      <point x="333" y="398"/>
      <point x="366" y="443"/>
      <point x="437" y="443" type="curve" smooth="yes"/>
      <point x="508" y="443"/>
      <point x="541" y="404"/>
      <point x="541" y="353" type="curve" smooth="yes"/>
      <point x="541" y="231" type="line" smooth="yes"/>
      <point x="541" y="170"/>
      <point x="507" y="135"/>
    </contour>
  </outline>
</glyph>
<glyph name="ccedilla" format="1">
  <advance width="503"/>
  <unicode hex="00E7"/>
  <outline>
    <contour>
      <point x="277" y="528" type="curve" smooth="yes" name="hr00"/>
      <point x="132" y="528"/>
      <point x="47" y="423"/>
      <point x="47" y="258" type="curve" smooth="yes"/>
      <point x="47" y="105"/>
      <point x="120" y="2"/>
      <point x="249" y="-11" type="curve"/>
      <point x="236" y="-77" type="line"/>
      <point x="264" y="-81" type="line" smooth="yes"/>
      <point x="320" y="-89"/>
      <point x="332" y="-104"/>
      <point x="332" y="-122" type="curve" smooth="yes"/>
      <point x="332" y="-143"/>
      <point x="313" y="-153"/>
      <point x="288" y="-153" type="curve" smooth="yes"/>
      <point x="259" y="-153"/>
      <point x="239" y="-140"/>
      <point x="227" y="-125" type="curve"/>
      <point x="189" y="-166" type="line"/>
      <point x="203" y="-185"/>
      <point x="234" y="-207"/>
      <point x="288" y="-207" type="curve" smooth="yes"/>
      <point x="347" y="-207"/>
      <point x="399" y="-181"/>
      <point x="399" y="-124" type="curve" smooth="yes"/>
      <point x="399" y="-81"/>
      <point x="370" y="-58"/>
      <point x="331" y="-58" type="curve" smooth="yes"/>
      <point x="319" y="-58"/>
      <point x="305" y="-60"/>
      <point x="292" y="-64" type="curve"/>
      <point x="289" y="-61" type="line"/>
      <point x="299" y="-11" type="line"/>
      <point x="385" y="-5"/>
      <point x="445" y="42"/>
      <point x="475" y="110" type="curve"/>
      <point x="417" y="149" type="line"/>
      <point x="389" y="90"/>
      <point x="342" y="59"/>
      <point x="277" y="59" type="curve" smooth="yes"/>
      <point x="182" y="59"/>
      <point x="133" y="124"/>
      <point x="133" y="214" type="curve" smooth="yes"/>
      <point x="133" y="302" type="line" smooth="yes"/>
      <point x="133" y="392"/>
      <point x="182" y="457"/>
      <point x="277" y="457" type="curve" smooth="yes"/>
      <point x="340" y="457"/>
      <point x="384" y="426"/>
      <point x="403" y="373" type="curve"/>
      <point x="470" y="408" type="line"/>
      <point x="440" y="478"/>
      <point x="379" y="528"/>
    </contour>
  </outline>
</glyph>
<glyph name="caronslovak" format="1">
  <advance width="600"/>
  <unicode hex="02BC"/>
  <outline>
    <contour>
      <point x="263" y="552" type="line" name="hr00"/>
      <point x="317" y="552" type="line"/>
      <point x="366" y="740" type="line"/>
      <point x="275" y="740" type="line"/>
    </contour>
    <contour>
      <point x="263.0" y="740.0" type="move" name="_topright"/>
    </contour>
  </outline>
</glyph>
<glyph name="u02D7" format="1">
  <advance width="300"/>
  <unicode hex="02D7"/>
  <outline>
    <contour>
      <point x="20" y="225" type="line" name="hr00"/>
      <point x="280" y="225" type="line"/>
      <point x="280" y="308" type="line"/>
      <point x="20" y="308" type="line"/>
    </contour>
  </outline>
</glyph>
<glyph name="tildecomb" format="1">
  <advance width="0"/>
  <unicode hex="0303"/>
  <outline>
    <contour>
      <point x="73" y="630" type="curve" smooth="yes" name="hr00"/>
      <point x="119" y="630"/>
      <point x="150" y="656"/>
      <point x="168" y="683" type="curve"/>
      <point x="135" y="723" type="line"/>
      <point x="115" y="706"/>
      <point x="99" y="696"/>
      <point x="77" y="696" type="curve" smooth="yes"/>
      <point x="60" y="696"/>
      <point x="39" y="703"/>
      <point x="7" y="720" type="curve" smooth="yes"/>
      <point x="-14" y="731"/>
      <point x="-38" y="746"/>
      <point x="-73" y="746" type="curve" smooth="yes"/>
      <point x="-119" y="746"/>
      <point x="-150" y="720"/>
      <point x="-168" y="693" type="curve"/>
      <point x="-135" y="653" type="line"/>
      <point x="-115" y="670"/>
      <point x="-99" y="680"/>
      <point x="-77" y="680" type="curve" smooth="yes"/>
      <point x="-60" y="680"/>
      <point x="-39" y="673"/>
      <point x="-7" y="656" type="curve" smooth="yes"/>
      <point x="14" y="645"/>
      <point x="38" y="630"/>
    </contour>
    <contour>
      <point x="0.0" y="558.0" type="move" name="_top"/>
    </contour>
  </outline>
</glyph>
<glyph name="macronbelowcomb" format="1">
  <advance width="0"/>
  <unicode hex="0331"/>
  <outline>
    <contour>
      <point x="-323" y="-177" type="line" name="hr00"/>
      <point x="-44" y="-177" type="line"/>
      <point x="-44" y="-113" type="line"/>
      <point x="-323" y="-113" type="line"/>
    </contour>
    <contour>
      <point x="0.0" y="0.0" type="move" name="_bottomright"/>
    </contour>
  </outline>
</glyph>
<glyph name="koKai-thai" format="1">
  <advance width="611"/>
  <unicode hex="0E01"/>
  <outline>
    <contour>
      <point x="134" y="0" type="line" name="hr00"/>
      <point x="214" y="0" type="line"/>
      <point x="214" y="309" type="line" smooth="yes"/>
      <point x="214" y="338"/>
      <point x="202" y="353"/>
      <point x="174" y="364" type="curve" smooth="yes"/>
      <point x="124" y="384" type="line"/>
      <point x="143" y="449"/>
      <point x="211" y="489"/>
      <point x="293" y="489" type="curve" smooth="yes"/>
      <point x="387" y="489"/>
      <point x="451" y="434"/>
      <point x="451" y="331" type="curve" smooth="yes"/>
      <point x="451" y="0" type="line"/>
      <point x="531" y="0" type="line"/>
      <point x="531" y="341" type="line" smooth="yes"/>
      <point x="531" y="474"/>
      <point x="445" y="558"/>
      <point x="290" y="558" type="curve" smooth="yes"/>
      <point x="158" y="558"/>
      <point x="57" y="470"/>
      <point x="49" y="348" type="curve"/>
      <point x="134" y="312" type="line"/>
    </contour>
    <contour>
      <point x="531.0" y="0.0" type="move" name="bottomright"/>
    </contour>
    <contour>
      <point x="293.0" y="558.0" type="move" name="top"/>
    </contour>
    <contour>
      <point x="531.0" y="600.0" type="move" name="topright"/>
    </contour>
  </outline>
</glyph>
<glyph name="khoKhai-thai" format="1">
  <advance width="561"/>
  <unicode hex="0E02"/>
  <outline>
    <contour>
      <point x="281" y="-12" type="curve" smooth="yes" name="hr00"/>
      <point x="411" y="-12"/>
      <point x="481" y="65"/>
      <point x="481" y="186" type="curve" smooth="yes"/>
      <point x="481" y="546" type="line"/>
      <point x="401" y="546" type="line"/>
      <point x="401" y="195" type="line" smooth="yes"/>
      <point x="401" y="107"/>
      <point x="356" y="57"/>
      <point x="279" y="57" type="curve" smooth="yes"/>
      <point x="208" y="57"/>
      <point x="160" y="93"/>
      <point x="160" y="171" type="curve" smooth="yes"/>
      <point x="160" y="202" type="line" smooth="yes"/>
      <point x="160" y="247"/>
      <point x="175" y="282"/>
      <point x="205" y="328" type="curve" smooth="yes"/>
      <point x="239" y="382"/>
      <point x="258" y="418"/>
      <point x="258" y="466" type="curve" smooth="yes"/>
      <point x="258" y="475" type="line" smooth="yes"/>
      <point x="258" y="518"/>
      <point x="231" y="546"/>
      <point x="182" y="546" type="curve" smooth="yes"/>
      <point x="65" y="546" type="line"/>
      <point x="65" y="476" type="line"/>
      <point x="179" y="476" type="line"/>
      <point x="179" y="449" type="line" smooth="yes"/>
      <point x="179" y="410"/>
      <point x="158" y="377"/>
      <point x="130" y="340" type="curve" smooth="yes"/>
      <point x="99" y="299"/>
      <point x="74" y="259"/>
      <point x="74" y="182" type="curve" smooth="yes"/>
      <point x="74" y="52"/>
      <point x="158" y="-12"/>
    </contour>
    <contour>
      <point x="481.0" y="0.0" type="move" name="bottomright"/>
    </contour>
    <contour>
      <point x="275.0" y="558.0" type="move" name="top"/>
    </contour>
    <contour>
      <point x="481.0" y="600.0" type="move" name="topright"/>
    </contour>
  </outline>
</glyph>
<glyph name="khoKhuat-thai" format="1">
  <advance width="589"/>
  <unicode hex="0E03"/>
  <outline>
    <contour>
      <point x="309" y="-12" type="curve" smooth="yes" name="hr00"/>
      <point x="439" y="-12"/>
      <point x="509" y="65"/>
      <point x="509" y="186" type="curve" smooth="yes"/>
      <point x="509" y="546" type="line"/>
      <point x="429" y="546" type="line"/>
      <point x="429" y="195" type="line" smooth="yes"/>
      <point x="429" y="106"/>
      <point x="383" y="57"/>
      <point x="307" y="57" type="curve" smooth="yes"/>
      <point x="236" y="57"/>
      <point x="188" y="93"/>
      <point x="188" y="171" type="curve" smooth="yes"/>
      <point x="188" y="202" type="line" smooth="yes"/>
      <point x="188" y="252"/>
      <point x="207" y="287"/>
      <point x="232" y="327" type="curve" smooth="yes"/>
      <point x="265" y="379"/>
      <point x="285" y="415"/>
      <point x="285" y="462" type="curve" smooth="yes"/>
      <point x="285" y="517"/>
      <point x="250" y="558"/>
      <point x="197" y="558" type="curve" smooth="yes"/>
      <point x="152" y="558"/>
      <point x="121" y="531"/>
      <point x="107" y="486" type="curve"/>
      <point x="102" y="486" type="line"/>
      <point x="102" y="555" type="line"/>
      <point x="35" y="555" type="line"/>
      <point x="35" y="416" type="line"/>
      <point x="94" y="416" type="line"/>
      <point x="99" y="470"/>
      <point x="119" y="499"/>
      <point x="159" y="499" type="curve" smooth="yes"/>
      <point x="188" y="499"/>
      <point x="210" y="483"/>
      <point x="210" y="447" type="curve" smooth="yes"/>
      <point x="210" y="408"/>
      <point x="186" y="377"/>
      <point x="157" y="339" type="curve" smooth="yes"/>
      <point x="127" y="299"/>
      <point x="102" y="257"/>
      <point x="102" y="182" type="curve" smooth="yes"/>
      <point x="102" y="52"/>
      <point x="186" y="-12"/>
    </contour>
    <contour>
      <point x="509.0" y="0.0" type="move" name="bottomright"/>
    </contour>
    <contour>
      <point x="309.0" y="558.0" type="move" name="top"/>
    </contour>
    <contour>
      <point x="509.0" y="600.0" type="move" name="topright"/>
    </contour>
  </outline>
</glyph>
<glyph name="khoKhon-thai" format="1">
  <advance width="651"/>
  <unicode hex="0E05"/>
  <outline>
    <contour>
      <point x="80" y="0" type="line" name="hr00"/>
      <point x="160" y="0" type="line"/>
      <point x="160" y="119" type="line" smooth="yes"/>
      <point x="160" y="177"/>
      <point x="215" y="213"/>
      <point x="300" y="213" type="curve" smooth="yes"/>
      <point x="346" y="213" type="line"/>
      <point x="346" y="293" type="line"/>
      <point x="313" y="293" type="line" smooth="yes"/>
      <point x="228" y="293"/>
      <point x="183" y="247"/>
      <point x="165" y="197" type="curve"/>
      <point x="160" y="197" type="line"/>
      <point x="160" y="413" type="line" smooth="yes"/>
      <point x="160" y="465"/>
      <point x="185" y="489"/>
      <point x="227" y="489" type="curve" smooth="yes"/>
      <point x="277" y="489"/>
      <point x="294" y="448"/>
      <point x="299" y="409" type="curve"/>
      <point x="352" y="409" type="line"/>
      <point x="357" y="448"/>
      <point x="374" y="489"/>
      <point x="424" y="489" type="curve" smooth="yes"/>
      <point x="466" y="489"/>
      <point x="491" y="465"/>
      <point x="491" y="413" type="curve" smooth="yes"/>
      <point x="491" y="0" type="line"/>
      <point x="571" y="0" type="line"/>
      <point x="571" y="414" type="line" smooth="yes"/>
      <point x="571" y="504"/>
      <point x="525" y="558"/>
      <point x="441" y="558" type="curve" smooth="yes"/>
      <point x="387" y="558"/>
      <point x="343" y="528"/>
      <point x="328" y="472" type="curve"/>
      <point x="323" y="472" type="line"/>
      <point x="308" y="528"/>
      <point x="264" y="558"/>
      <point x="210" y="558" type="curve" smooth="yes"/>
      <point x="126" y="558"/>
      <point x="80" y="504"/>
      <point x="80" y="414" type="curve" smooth="yes"/>
    </contour>
    <contour>
      <point x="571.0" y="0.0" type="move" name="bottomright"/>
    </contour>
    <contour>
      <point x="327.0" y="558.0" type="move" name="top"/>
    </contour>
    <contour>
      <point x="571.0" y="600.0" type="move" name="topright"/>
    </contour>
  </outline>
</glyph>
<glyph name="khoRakhang-thai" format="1">
  <advance width="626"/>
  <unicode hex="0E06"/>
  <outline>
    <contour>
      <point x="358" y="-12" type="curve" smooth="yes" name="hr00"/>
      <point x="473" y="-12"/>
      <point x="546" y="64"/>
      <point x="546" y="198" type="curve" smooth="yes"/>
      <point x="546" y="546" type="line"/>
      <point x="466" y="546" type="line"/>
      <point x="466" y="208" type="line" smooth="yes"/>
      <point x="466" y="109"/>
      <point x="420" y="58"/>
      <point x="333" y="58" type="curve" smooth="yes"/>
      <point x="266" y="58"/>
      <point x="196" y="93"/>
      <point x="196" y="168" type="curve" smooth="yes"/>
      <point x="196" y="205" type="line" smooth="yes"/>
      <point x="196" y="252"/>
      <point x="215" y="287"/>
      <point x="241" y="327" type="curve" smooth="yes"/>
      <point x="274" y="379"/>
      <point x="294" y="415"/>
      <point x="294" y="462" type="curve" smooth="yes"/>
      <point x="294" y="517"/>
      <point x="259" y="558"/>
      <point x="206" y="558" type="curve" smooth="yes"/>
      <point x="161" y="558"/>
      <point x="130" y="531"/>
      <point x="116" y="486" type="curve"/>
      <point x="111" y="486" type="line"/>
      <point x="111" y="555" type="line"/>
      <point x="44" y="555" type="line"/>
      <point x="44" y="416" type="line"/>
      <point x="103" y="416" type="line"/>
      <point x="108" y="470"/>
      <point x="128" y="499"/>
      <point x="168" y="499" type="curve" smooth="yes"/>
      <point x="196" y="499"/>
      <point x="218" y="483"/>
      <point x="218" y="447" type="curve" smooth="yes"/>
      <point x="218" y="408"/>
      <point x="195" y="377"/>
      <point x="166" y="339" type="curve" smooth="yes"/>
      <point x="135" y="299"/>
      <point x="116" y="257"/>
      <point x="116" y="184" type="curve" smooth="yes"/>
      <point x="116" y="0" type="line"/>
      <point x="196" y="0" type="line"/>
      <point x="196" y="89" type="line"/>
      <point x="201" y="89" type="line"/>
      <point x="222" y="37"/>
      <point x="266" y="-12"/>
    </contour>
    <contour>
      <point x="546.0" y="0.0" type="move" name="bottomright"/>
    </contour>
    <contour>
      <point x="331.0" y="558.0" type="move" name="top"/>
    </contour>
    <contour>
      <point x="546.0" y="600.0" type="move" name="topright"/>
    </contour>
  </outline>
</glyph>
<glyph name="choChan-thai" format="1">
  <advance width="574"/>
  <unicode hex="0E08"/>
  <outline>
    <contour>
      <point x="223" y="0" type="line" name="hr00"/>
      <point x="311" y="0" type="line" smooth="yes"/>
      <point x="435" y="0"/>
      <point x="514" y="105"/>
      <point x="514" y="278" type="curve" smooth="yes"/>
      <point x="514" y="453"/>
      <point x="425" y="558"/>
      <point x="270" y="558" type="curve" smooth="yes"/>
      <point x="141" y="558"/>
      <point x="61" y="501"/>
      <point x="26" y="433" type="curve"/>
      <point x="78" y="387" type="line"/>
      <point x="113" y="447"/>
      <point x="173" y="489"/>
      <point x="267" y="489" type="curve" smooth="yes"/>
      <point x="367" y="489"/>
      <point x="429" y="426"/>
      <point x="429" y="319" type="curve" smooth="yes"/>
      <point x="429" y="237" type="line" smooth="yes"/>
      <point x="429" y="131"/>
      <point x="385" y="67"/>
      <point x="320" y="67" type="curve" smooth="yes"/>
      <point x="282" y="67" type="line"/>
      <point x="210" y="272" type="line" smooth="yes"/>
      <point x="203" y="293"/>
      <point x="183" y="301"/>
      <point x="163" y="301" type="curve" smooth="yes"/>
      <point x="81" y="301" type="line"/>
      <point x="81" y="232" type="line"/>
      <point x="142" y="232" type="line"/>
    </contour>
    <contour>
      <point x="483.0" y="0.0" type="move" name="bottomright"/>
    </contour>
    <contour>
      <point x="271.0" y="558.0" type="move" name="top"/>
    </contour>
    <contour>
      <point x="483.0" y="600.0" type="move" name="topright"/>
    </contour>
  </outline>
</glyph>
<glyph name="choChing-thai" format="1">
  <advance width="592"/>
  <unicode hex="0E09"/>
  <outline>
    <contour>
      <point x="265" y="-12" type="curve" smooth="yes" name="hr00"/>
      <point x="336" y="-12"/>
      <point x="399" y="24"/>
      <point x="420" y="85" type="curve"/>
      <point x="424" y="85" type="line"/>
      <point x="428" y="36"/>
      <point x="451" y="0"/>
      <point x="504" y="0" type="curve" smooth="yes"/>
      <point x="563" y="0" type="line"/>
      <point x="563" y="70" type="line"/>
      <point x="499" y="70" type="line"/>
      <point x="499" y="349" type="line" smooth="yes"/>
      <point x="499" y="481"/>
      <point x="417" y="558"/>
      <point x="276" y="558" type="curve" smooth="yes"/>
      <point x="153" y="558"/>
      <point x="81" y="504"/>
      <point x="44" y="434" type="curve"/>
      <point x="96" y="388" type="line"/>
      <point x="131" y="450"/>
      <point x="187" y="489"/>
      <point x="271" y="489" type="curve" smooth="yes"/>
      <point x="370" y="489"/>
      <point x="419" y="441"/>
      <point x="419" y="340" type="curve" smooth="yes"/>
      <point x="419" y="168" type="line" smooth="yes"/>
      <point x="419" y="93"/>
      <point x="350" y="58"/>
      <point x="287" y="58" type="curve" smooth="yes"/>
      <point x="209" y="58"/>
      <point x="165" y="100"/>
      <point x="165" y="189" type="curve" smooth="yes"/>
      <point x="165" y="251" type="line"/>
      <point x="85" y="251" type="line"/>
      <point x="85" y="173" type="line" smooth="yes"/>
      <point x="85" y="55"/>
      <point x="153" y="-12"/>
    </contour>
    <contour>
      <point x="499.0" y="0.0" type="move" name="bottomright"/>
    </contour>
    <contour>
      <point x="273.0" y="558.0" type="move" name="top"/>
    </contour>
    <contour>
      <point x="499.0" y="600.0" type="move" name="topright"/>
    </contour>
  </outline>
</glyph>
<glyph name="choChang-thai" format="1">
  <advance width="556"/>
  <unicode hex="0E0A"/>
  <outline>
    <contour>
      <point x="283" y="-12" type="curve" smooth="yes" name="hr00"/>
      <point x="412" y="-12"/>
      <point x="486" y="73"/>
      <point x="486" y="209" type="curve" smooth="yes"/>
      <point x="486" y="301"/>
      <point x="451" y="373"/>
      <point x="381" y="393" type="curve"/>
      <point x="381" y="398" type="line"/>
      <point x="432" y="407"/>
      <point x="483" y="443"/>
      <point x="483" y="510" type="curve" smooth="yes"/>
      <point x="483" y="562" type="line"/>
      <point x="403" y="562" type="line"/>
      <point x="403" y="507" type="line" smooth="yes"/>
      <point x="403" y="446"/>
      <point x="373" y="420"/>
      <point x="327" y="420" type="curve" smooth="yes"/>
      <point x="297" y="420" type="line"/>
      <point x="297" y="356" type="line"/>
      <point x="325" y="356" type="line" smooth="yes"/>
      <point x="372" y="356"/>
      <point x="400" y="317"/>
      <point x="400" y="250" type="curve" smooth="yes"/>
      <point x="400" y="163" type="line" smooth="yes"/>
      <point x="400" y="95"/>
      <point x="356" y="57"/>
      <point x="281" y="57" type="curve" smooth="yes"/>
      <point x="208" y="57"/>
      <point x="160" y="93"/>
      <point x="160" y="171" type="curve" smooth="yes"/>
      <point x="160" y="202" type="line" smooth="yes"/>
      <point x="160" y="247"/>
      <point x="175" y="282"/>
      <point x="205" y="328" type="curve" smooth="yes"/>
      <point x="239" y="382"/>
      <point x="258" y="418"/>
      <point x="258" y="466" type="curve" smooth="yes"/>
      <point x="258" y="475" type="line" smooth="yes"/>
      <point x="258" y="518"/>
      <point x="231" y="546"/>
      <point x="182" y="546" type="curve" smooth="yes"/>
      <point x="65" y="546" type="line"/>
      <point x="65" y="476" type="line"/>
      <point x="179" y="476" type="line"/>
      <point x="179" y="449" type="line" smooth="yes"/>
      <point x="179" y="410"/>
      <point x="158" y="377"/>
      <point x="130" y="340" type="curve" smooth="yes"/>
      <point x="99" y="299"/>
      <point x="74" y="259"/>
      <point x="74" y="182" type="curve" smooth="yes"/>
      <point x="74" y="51"/>
      <point x="158" y="-12"/>
    </contour>
    <contour>
      <point x="478.0" y="0.0" type="move" name="bottomright"/>
    </contour>
    <contour>
      <point x="276.0" y="558.0" type="move" name="top"/>
    </contour>
    <contour>
      <point x="483.0" y="600.0" type="move" name="topright"/>
    </contour>
  </outline>
</glyph>
<glyph name="soSo-thai" format="1">
  <advance width="584"/>
  <unicode hex="0E0B"/>
  <outline>
    <contour>
      <point x="311" y="-12" type="curve" smooth="yes" name="hr00"/>
      <point x="440" y="-12"/>
      <point x="514" y="73"/>
      <point x="514" y="209" type="curve" smooth="yes"/>
      <point x="514" y="301"/>
      <point x="479" y="373"/>
      <point x="409" y="393" type="curve"/>
      <point x="409" y="398" type="line"/>
      <point x="460" y="407"/>
      <point x="511" y="443"/>
      <point x="511" y="510" type="curve" smooth="yes"/>
      <point x="511" y="562" type="line"/>
      <point x="431" y="562" type="line"/>
      <point x="431" y="507" type="line" smooth="yes"/>
      <point x="431" y="446"/>
      <point x="401" y="420"/>
      <point x="355" y="420" type="curve" smooth="yes"/>
      <point x="325" y="420" type="line"/>
      <point x="325" y="356" type="line"/>
      <point x="353" y="356" type="line" smooth="yes"/>
      <point x="400" y="356"/>
      <point x="428" y="317"/>
      <point x="428" y="250" type="curve" smooth="yes"/>
      <point x="428" y="163" type="line" smooth="yes"/>
      <point x="428" y="95"/>
      <point x="384" y="57"/>
      <point x="309" y="57" type="curve" smooth="yes"/>
      <point x="236" y="57"/>
      <point x="188" y="93"/>
      <point x="188" y="171" type="curve" smooth="yes"/>
      <point x="188" y="202" type="line" smooth="yes"/>
      <point x="188" y="247"/>
      <point x="203" y="282"/>
      <point x="233" y="328" type="curve" smooth="yes"/>
      <point x="266" y="380"/>
      <point x="286" y="415"/>
      <point x="286" y="462" type="curve" smooth="yes"/>
      <point x="286" y="517"/>
      <point x="251" y="558"/>
      <point x="197" y="558" type="curve" smooth="yes"/>
      <point x="152" y="558"/>
      <point x="121" y="531"/>
      <point x="108" y="486" type="curve"/>
      <point x="102" y="486" type="line"/>
      <point x="102" y="555" type="line"/>
      <point x="35" y="555" type="line"/>
      <point x="35" y="416" type="line"/>
      <point x="95" y="416" type="line"/>
      <point x="100" y="470"/>
      <point x="120" y="499"/>
      <point x="160" y="499" type="curve" smooth="yes"/>
      <point x="188" y="499"/>
      <point x="210" y="483"/>
      <point x="210" y="447" type="curve" smooth="yes"/>
      <point x="210" y="409"/>
      <point x="187" y="378"/>
      <point x="158" y="340" type="curve" smooth="yes"/>
      <point x="127" y="299"/>
      <point x="102" y="259"/>
      <point x="102" y="182" type="curve" smooth="yes"/>
      <point x="102" y="51"/>
      <point x="186" y="-12"/>
    </contour>
    <contour>
      <point x="506.0" y="0.0" type="move" name="bottomright"/>
    </contour>
    <contour>
      <point x="302.0" y="558.0" type="move" name="top"/>
    </contour>
    <contour>
      <point x="511.0" y="600.0" type="move" name="topright"/>
    </contour>
  </outline>
</glyph>
<glyph name="choChoe-thai" format="1">
  <advance width="937"/>
  <unicode hex="0E0C"/>
  <outline>
    <contour>
      <point x="684" y="-12" type="curve" smooth="yes" name="hr00"/>
      <point x="792" y="-12"/>
      <point x="857" y="64"/>
      <point x="857" y="198" type="curve" smooth="yes"/>
      <point x="857" y="546" type="line"/>
      <point x="777" y="546" type="line"/>
      <point x="777" y="208" type="line" smooth="yes"/>
      <point x="777" y="108"/>
      <point x="737" y="56"/>
      <point x="658" y="56" type="curve" smooth="yes"/>
      <point x="596" y="56"/>
      <point x="531" y="93"/>
      <point x="531" y="168" type="curve" smooth="yes"/>
      <point x="531" y="341" type="line" smooth="yes"/>
      <point x="531" y="474"/>
      <point x="444" y="558"/>
      <point x="290" y="558" type="curve" smooth="yes"/>
      <point x="158" y="558"/>
      <point x="57" y="470"/>
      <point x="49" y="348" type="curve"/>
      <point x="134" y="312" type="line"/>
      <point x="134" y="84" type="line" smooth="yes"/>
      <point x="134" y="33"/>
      <point x="162" y="0"/>
      <point x="219" y="0" type="curve" smooth="yes"/>
      <point x="278" y="0" type="line"/>
      <point x="278" y="70" type="line"/>
      <point x="214" y="70" type="line"/>
      <point x="214" y="309" type="line" smooth="yes"/>
      <point x="214" y="338"/>
      <point x="202" y="352"/>
      <point x="173" y="364" type="curve" smooth="yes"/>
      <point x="124" y="384" type="line"/>
      <point x="143" y="449"/>
      <point x="211" y="489"/>
      <point x="293" y="489" type="curve" smooth="yes"/>
      <point x="387" y="489"/>
      <point x="451" y="434"/>
      <point x="451" y="331" type="curve" smooth="yes"/>
      <point x="451" y="0" type="line"/>
      <point x="531" y="0" type="line"/>
      <point x="531" y="89" type="line"/>
      <point x="536" y="89" type="line"/>
      <point x="555" y="37"/>
      <point x="598" y="-12"/>
    </contour>
    <contour>
      <point x="857.0" y="0.0" type="move" name="bottomright"/>
    </contour>
    <contour>
      <point x="491.0" y="558.0" type="move" name="top"/>
    </contour>
    <contour>
      <point x="857.0" y="600.0" type="move" name="topright"/>
    </contour>
  </outline>
</glyph>
<glyph name="yoYing-thai" format="1">
  <advance width="916"/>
  <unicode hex="0E0D"/>
  <outline>
    <contour>
      <point x="634" y="-12" type="curve" smooth="yes" name="hr00"/>
      <point x="757" y="-12"/>
      <point x="835" y="64"/>
      <point x="835" y="180" type="curve" smooth="yes"/>
      <point x="835" y="546" type="line"/>
      <point x="755" y="546" type="line"/>
      <point x="755" y="179" type="line" smooth="yes"/>
      <point x="755" y="101"/>
      <point x="707" y="58"/>
      <point x="634" y="58" type="curve" smooth="yes"/>
      <point x="562" y="58"/>
      <point x="513" y="101"/>
      <point x="513" y="179" type="curve" smooth="yes"/>
      <point x="513" y="340" type="line" smooth="yes"/>
      <point x="513" y="474"/>
      <point x="432" y="558"/>
      <point x="285" y="558" type="curve" smooth="yes"/>
      <point x="155" y="558"/>
      <point x="57" y="470"/>
      <point x="49" y="348" type="curve"/>
      <point x="134" y="312" type="line"/>
      <point x="134" y="84" type="line" smooth="yes"/>
      <point x="134" y="33"/>
      <point x="163" y="0"/>
      <point x="220" y="0" type="curve" smooth="yes"/>
      <point x="278" y="0" type="line"/>
      <point x="278" y="70" type="line"/>
      <point x="214" y="70" type="line"/>
      <point x="214" y="309" type="line" smooth="yes"/>
      <point x="214" y="338"/>
      <point x="202" y="352"/>
      <point x="173" y="364" type="curve" smooth="yes"/>
      <point x="124" y="384" type="line"/>
      <point x="142" y="449"/>
      <point x="208" y="489"/>
      <point x="286" y="489" type="curve" smooth="yes"/>
      <point x="375" y="489"/>
      <point x="433" y="434"/>
      <point x="433" y="330" type="curve" smooth="yes"/>
      <point x="433" y="180" type="line" smooth="yes"/>
      <point x="433" y="64"/>
      <point x="512" y="-12"/>
    </contour>
    <contour>
      <point x="521" y="-232" type="curve" smooth="yes"/>
      <point x="835" y="-232" type="line"/>
      <point x="835" y="-164" type="line"/>
      <point x="514" y="-164" type="line"/>
      <point x="514" y="-90" type="line"/>
      <point x="434" y="-90" type="line"/>
      <point x="434" y="-153" type="line" smooth="yes"/>
      <point x="434" y="-201"/>
      <point x="461" y="-232"/>
    </contour>
    <contour>
      <point x="474.0" y="558.0" type="move" name="top"/>
    </contour>
    <contour>
      <point x="835.0" y="600.0" type="move" name="topright"/>
    </contour>
  </outline>
</glyph>
<glyph name="toPatak-thai" format="1">
  <advance width="609"/>
  <unicode hex="0E0F"/>
  <outline>
    <contour>
      <point x="140" y="-232" type="line" name="hr00"/>
      <point x="188" y="-232" type="line" smooth="yes"/>
      <point x="238" y="-232"/>
      <point x="281" y="-212"/>
      <point x="294" y="-151" type="curve"/>
      <point x="299" y="-151" type="line"/>
      <point x="313" y="-212"/>
      <point x="363" y="-232"/>
      <point x="407" y="-232" type="curve" smooth="yes"/>
      <point x="483" y="-232"/>
      <point x="529" y="-182"/>
      <point x="529" y="-98" type="curve" smooth="yes"/>
      <point x="529" y="341" type="line" smooth="yes"/>
      <point x="529" y="474"/>
      <point x="445" y="558"/>
      <point x="293" y="558" type="curve" smooth="yes"/>
      <point x="161" y="558"/>
      <point x="61" y="470"/>
      <point x="53" y="348" type="curve"/>
      <point x="139" y="312" type="line"/>
      <point x="139" y="70" type="line"/>
      <point x="75" y="70" type="line"/>
      <point x="75" y="0" type="line"/>
      <point x="134" y="0" type="line" smooth="yes"/>
      <point x="190" y="0"/>
      <point x="219" y="33"/>
      <point x="219" y="84" type="curve" smooth="yes"/>
      <point x="219" y="309" type="line" smooth="yes"/>
      <point x="219" y="338"/>
      <point x="207" y="352"/>
      <point x="178" y="364" type="curve" smooth="yes"/>
      <point x="128" y="384" type="line"/>
      <point x="146" y="449"/>
      <point x="214" y="489"/>
      <point x="295" y="489" type="curve" smooth="yes"/>
      <point x="387" y="489"/>
      <point x="449" y="434"/>
      <point x="449" y="331" type="curve" smooth="yes"/>
      <point x="449" y="-99" type="line" smooth="yes"/>
      <point x="449" y="-144"/>
      <point x="427" y="-166"/>
      <point x="392" y="-166" type="curve" smooth="yes"/>
      <point x="348" y="-166"/>
      <point x="330" y="-126"/>
      <point x="326" y="-91" type="curve"/>
      <point x="266" y="-91" type="line"/>
      <point x="263" y="-126"/>
      <point x="250" y="-166"/>
      <point x="192" y="-166" type="curve" smooth="yes"/>
      <point x="140" y="-166" type="line"/>
    </contour>
    <contour>
      <point x="295.0" y="558.0" type="move" name="top"/>
    </contour>
    <contour>
      <point x="529.0" y="600.0" type="move" name="topright"/>
    </contour>
  </outline>
</glyph>
<glyph name="thoNangmontho-thai" format="1">
  <advance width="640"/>
  <unicode hex="0E11"/>
  <outline>
    <contour>
      <point x="116" y="0" type="line" name="hr00"/>
      <point x="196" y="0" type="line"/>
      <point x="196" y="205" type="line" smooth="yes"/>
      <point x="196" y="252"/>
      <point x="215" y="287"/>
      <point x="241" y="327" type="curve" smooth="yes"/>
      <point x="274" y="379"/>
      <point x="342" y="488"/>
      <point x="409" y="488" type="curve" smooth="yes"/>
      <point x="464" y="488"/>
      <point x="480" y="435"/>
      <point x="480" y="362" type="curve" smooth="yes"/>
      <point x="480" y="0" type="line"/>
      <point x="560" y="0" type="line"/>
      <point x="560" y="389" type="line" smooth="yes"/>
      <point x="560" y="498"/>
      <point x="508" y="558"/>
      <point x="423" y="558" type="curve" smooth="yes"/>
      <point x="356" y="558"/>
      <point x="323" y="520"/>
      <point x="272" y="452" type="curve"/>
      <point x="267" y="454" type="line"/>
      <point x="272" y="468"/>
      <point x="275" y="480"/>
      <point x="275" y="492" type="curve" smooth="yes"/>
      <point x="275" y="530"/>
      <point x="247" y="558"/>
      <point x="206" y="558" type="curve" smooth="yes"/>
      <point x="161" y="558"/>
      <point x="130" y="531"/>
      <point x="116" y="486" type="curve"/>
      <point x="111" y="486" type="line"/>
      <point x="111" y="555" type="line"/>
      <point x="44" y="555" type="line"/>
      <point x="44" y="416" type="line"/>
      <point x="103" y="416" type="line"/>
      <point x="108" y="470"/>
      <point x="128" y="499"/>
      <point x="168" y="499" type="curve" smooth="yes"/>
      <point x="196" y="499"/>
      <point x="218" y="483"/>
      <point x="218" y="447" type="curve" smooth="yes"/>
      <point x="218" y="408"/>
      <point x="195" y="377"/>
      <point x="166" y="339" type="curve" smooth="yes"/>
      <point x="135" y="299"/>
      <point x="116" y="257"/>
      <point x="116" y="184" type="curve" smooth="yes"/>
    </contour>
    <contour>
      <point x="560.0" y="0.0" type="move" name="bottomright"/>
    </contour>
    <contour>
      <point x="316.0" y="558.0" type="move" name="top"/>
    </contour>
    <contour>
      <point x="560.0" y="600.0" type="move" name="topright"/>
    </contour>
  </outline>
</glyph>
<glyph name="noNen-thai" format="1">
  <advance width="935"/>
  <unicode hex="0E13"/>
  <outline>
    <contour>
      <point x="605" y="-12" type="curve" smooth="yes" name="hr00"/>
      <point x="694" y="-12"/>
      <point x="736" y="35"/>
      <point x="757" y="85" type="curve"/>
      <point x="761" y="85" type="line"/>
      <point x="765" y="36"/>
      <point x="788" y="0"/>
      <point x="841" y="0" type="curve" smooth="yes"/>
      <point x="900" y="0" type="line"/>
      <point x="900" y="70" type="line"/>
      <point x="836" y="70" type="line"/>
      <point x="836" y="546" type="line"/>
      <point x="756" y="546" type="line"/>
      <point x="756" y="168" type="line" smooth="yes"/>
      <point x="756" y="93"/>
      <point x="692" y="56"/>
      <point x="630" y="56" type="curve" smooth="yes"/>
      <point x="553" y="56"/>
      <point x="513" y="108"/>
      <point x="513" y="208" type="curve" smooth="yes"/>
      <point x="513" y="340" type="line" smooth="yes"/>
      <point x="513" y="474"/>
      <point x="432" y="558"/>
      <point x="285" y="558" type="curve" smooth="yes"/>
      <point x="155" y="558"/>
      <point x="57" y="470"/>
      <point x="49" y="348" type="curve"/>
      <point x="134" y="312" type="line"/>
      <point x="134" y="84" type="line" smooth="yes"/>
      <point x="134" y="33"/>
      <point x="163" y="0"/>
      <point x="220" y="0" type="curve" smooth="yes"/>
      <point x="278" y="0" type="line"/>
      <point x="278" y="70" type="line"/>
      <point x="214" y="70" type="line"/>
      <point x="214" y="309" type="line" smooth="yes"/>
      <point x="214" y="338"/>
      <point x="202" y="352"/>
      <point x="173" y="364" type="curve" smooth="yes"/>
      <point x="124" y="384" type="line"/>
      <point x="142" y="449"/>
      <point x="208" y="489"/>
      <point x="286" y="489" type="curve" smooth="yes"/>
      <point x="375" y="489"/>
      <point x="433" y="434"/>
      <point x="433" y="330" type="curve" smooth="yes"/>
      <point x="433" y="198" type="line" smooth="yes"/>
      <point x="433" y="64"/>
      <point x="498" y="-12"/>
    </contour>
    <contour>
      <point x="836.0" y="0.0" type="move" name="bottomright"/>
    </contour>
    <contour>
      <point x="474.0" y="558.0" type="move" name="top"/>
    </contour>
    <contour>
      <point x="836.0" y="600.0" type="move" name="topright"/>
    </contour>
  </outline>
</glyph>
<glyph name="thoThung-thai" format="1">
  <advance width="614"/>
  <unicode hex="0E16"/>
  <outline>
    <contour>
      <point x="220" y="0" type="curve" smooth="yes" name="hr00"/>
      <point x="278" y="0" type="line"/>
      <point x="278" y="70" type="line"/>
      <point x="214" y="70" type="line"/>
      <point x="214" y="309" type="line" smooth="yes"/>
      <point x="214" y="338"/>
      <point x="202" y="352"/>
      <point x="173" y="364" type="curve" smooth="yes"/>
      <point x="124" y="384" type="line"/>
      <point x="143" y="449"/>
      <point x="212" y="489"/>
      <point x="294" y="489" type="curve" smooth="yes"/>
      <point x="389" y="489"/>
      <point x="454" y="434"/>
      <point x="454" y="331" type="curve" smooth="yes"/>
      <point x="454" y="0" type="line"/>
      <point x="534" y="0" type="line"/>
      <point x="534" y="341" type="line" smooth="yes"/>
      <point x="534" y="474"/>
      <point x="447" y="558"/>
      <point x="291" y="558" type="curve" smooth="yes"/>
      <point x="158" y="558"/>
      <point x="57" y="470"/>
      <point x="49" y="348" type="curve"/>
      <point x="134" y="312" type="line"/>
      <point x="134" y="84" type="line" smooth="yes"/>
      <point x="134" y="33"/>
      <point x="163" y="0"/>
    </contour>
    <contour>
      <point x="534.0" y="0.0" type="move" name="bottomright"/>
    </contour>
    <contour>
      <point x="294.0" y="558.0" type="move" name="top"/>
    </contour>
    <contour>
      <point x="534.0" y="600.0" type="move" name="topright"/>
    </contour>
  </outline>
</glyph>
<glyph name="thoThong-thai" format="1">
  <advance width="548"/>
  <unicode hex="0E18"/>
  <outline>
    <contour>
      <point x="70" y="0" type="line" name="hr00"/>
      <point x="410" y="0" type="line" smooth="yes"/>
      <point x="466" y="0"/>
      <point x="495" y="33"/>
      <point x="495" y="84" type="curve" smooth="yes"/>
      <point x="495" y="194" type="line" smooth="yes"/>
      <point x="495" y="303"/>
      <point x="427" y="339"/>
      <point x="304" y="350" type="curve" smooth="yes"/>
      <point x="140" y="365" type="line"/>
      <point x="140" y="377" type="line" smooth="yes"/>
      <point x="140" y="453"/>
      <point x="193" y="491"/>
      <point x="282" y="491" type="curve" smooth="yes"/>
      <point x="363" y="491"/>
      <point x="410" y="460"/>
      <point x="438" y="425" type="curve"/>
      <point x="489" y="473" type="line"/>
      <point x="446" y="524"/>
      <point x="384" y="558"/>
      <point x="285" y="558" type="curve" smooth="yes"/>
      <point x="143" y="558"/>
      <point x="60" y="487"/>
      <point x="60" y="368" type="curve" smooth="yes"/>
      <point x="60" y="309" type="line"/>
      <point x="289" y="289" type="line" smooth="yes"/>
      <point x="402" y="279"/>
      <point x="415" y="245"/>
      <point x="415" y="178" type="curve" smooth="yes"/>
      <point x="415" y="67" type="line"/>
      <point x="144" y="67" type="line"/>
      <point x="144" y="199" type="line"/>
      <point x="70" y="199" type="line"/>
    </contour>
    <contour>
      <point x="495.0" y="0.0" type="move" name="bottomright"/>
    </contour>
    <contour>
      <point x="273.0" y="558.0" type="move" name="top"/>
    </contour>
    <contour>
      <point x="495.0" y="600.0" type="move" name="topright"/>
    </contour>
  </outline>
</glyph>
<glyph name="noNu-thai" format="1">
  <advance width="606"/>
  <unicode hex="0E19"/>
  <outline>
    <contour>
      <point x="265" y="-12" type="curve" smooth="yes" name="hr00"/>
      <point x="344" y="-12"/>
      <point x="407" y="24"/>
      <point x="428" y="85" type="curve"/>
      <point x="432" y="85" type="line"/>
      <point x="436" y="36"/>
      <point x="459" y="0"/>
      <point x="512" y="0" type="curve" smooth="yes"/>
      <point x="571" y="0" type="line"/>
      <point x="571" y="70" type="line"/>
      <point x="507" y="70" type="line"/>
      <point x="507" y="546" type="line"/>
      <point x="427" y="546" type="line"/>
      <point x="427" y="168" type="line" smooth="yes"/>
      <point x="427" y="93"/>
      <point x="358" y="56"/>
      <point x="290" y="56" type="curve" smooth="yes"/>
      <point x="205" y="56"/>
      <point x="160" y="108"/>
      <point x="160" y="208" type="curve" smooth="yes"/>
      <point x="160" y="546" type="line"/>
      <point x="80" y="546" type="line"/>
      <point x="80" y="198" type="line" smooth="yes"/>
      <point x="80" y="65"/>
      <point x="150" y="-12"/>
    </contour>
    <contour>
      <point x="507.0" y="0.0" type="move" name="bottomright"/>
    </contour>
    <contour>
      <point x="295.0" y="558.0" type="move" name="top"/>
    </contour>
    <contour>
      <point x="507.0" y="600.0" type="move" name="topright"/>
    </contour>
  </outline>
</glyph>
<glyph name="foFan-thai" format="1">
  <advance width="721"/>
  <unicode hex="0E1F"/>
  <outline>
    <contour>
      <point x="142" y="0" type="line" name="hr00"/>
      <point x="231" y="0" type="line"/>
      <point x="319" y="303" type="line"/>
      <point x="358" y="456" type="line"/>
      <point x="361" y="456" type="line"/>
      <point x="400" y="303" type="line"/>
      <point x="488" y="0" type="line"/>
      <point x="579" y="0" type="line"/>
      <point x="682" y="722" type="line"/>
      <point x="603" y="722" type="line"/>
      <point x="544" y="288" type="line"/>
      <point x="526" y="87" type="line"/>
      <point x="521" y="87" type="line"/>
      <point x="471" y="288" type="line"/>
      <point x="396" y="546" type="line"/>
      <point x="324" y="546" type="line"/>
      <point x="250" y="288" type="line"/>
      <point x="199" y="87" type="line"/>
      <point x="195" y="87" type="line"/>
      <point x="177" y="288" type="line"/>
      <point x="141" y="546" type="line"/>
      <point x="62" y="546" type="line"/>
    </contour>
    <contour>
      <point x="579.0" y="0.0" type="move" name="bottomright"/>
    </contour>
    <contour>
      <point x="360.0" y="558.0" type="move" name="top"/>
    </contour>
    <contour>
      <point x="587.0" y="600.0" type="move" name="topright"/>
    </contour>
  </outline>
</glyph>
<glyph name="phoSamphao-thai" format="1">
  <advance width="609"/>
  <unicode hex="0E20"/>
  <outline>
    <contour>
      <point x="74" y="0" type="line" name="hr00"/>
      <point x="134" y="0" type="line" smooth="yes"/>
      <point x="190" y="0"/>
      <point x="218" y="33"/>
      <point x="218" y="84" type="curve" smooth="yes"/>
      <point x="218" y="309" type="line" smooth="yes"/>
      <point x="218" y="338"/>
      <point x="206" y="352"/>
      <point x="177" y="364" type="curve" smooth="yes"/>
      <point x="128" y="384" type="line"/>
      <point x="146" y="449"/>
      <point x="214" y="489"/>
      <point x="295" y="489" type="curve" smooth="yes"/>
      <point x="387" y="489"/>
      <point x="449" y="434"/>
      <point x="449" y="331" type="curve" smooth="yes"/>
      <point x="449" y="0" type="line"/>
      <point x="529" y="0" type="line"/>
      <point x="529" y="341" type="line" smooth="yes"/>
      <point x="529" y="474"/>
      <point x="445" y="558"/>
      <point x="293" y="558" type="curve" smooth="yes"/>
      <point x="161" y="558"/>
      <point x="61" y="470"/>
      <point x="53" y="348" type="curve"/>
      <point x="138" y="312" type="line"/>
      <point x="138" y="70" type="line"/>
      <point x="74" y="70" type="line"/>
    </contour>
    <contour>
      <point x="529.0" y="0.0" type="move" name="bottomright"/>
    </contour>
    <contour>
      <point x="295.0" y="558.0" type="move" name="top"/>
    </contour>
    <contour>
      <point x="529.0" y="600.0" type="move" name="topright"/>
    </contour>
  </outline>
</glyph>
<glyph name="yoYak-thai" format="1">
  <advance width="600"/>
  <unicode hex="0E22"/>
  <outline>
    <contour>
      <point x="284" y="-12" type="curve" smooth="yes" name="hr00"/>
      <point x="428" y="-12"/>
      <point x="520" y="67"/>
      <point x="520" y="190" type="curve" smooth="yes"/>
      <point x="520" y="546" type="line"/>
      <point x="440" y="546" type="line"/>
      <point x="440" y="202" type="line" smooth="yes"/>
      <point x="440" y="108"/>
      <point x="381" y="56"/>
      <point x="284" y="56" type="curve" smooth="yes"/>
      <point x="202" y="56"/>
      <point x="156" y="91"/>
      <point x="156" y="150" type="curve" smooth="yes"/>
      <point x="156" y="175" type="line" smooth="yes"/>
      <point x="156" y="230"/>
      <point x="195" y="261"/>
      <point x="245" y="261" type="curve" smooth="yes"/>
      <point x="303" y="261" type="line"/>
      <point x="303" y="318" type="line"/>
      <point x="245" y="318" type="line" smooth="yes"/>
      <point x="161" y="318"/>
      <point x="144" y="365"/>
      <point x="144" y="407" type="curve" smooth="yes"/>
      <point x="144" y="456"/>
      <point x="175" y="491"/>
      <point x="233" y="491" type="curve" smooth="yes"/>
      <point x="251" y="491"/>
      <point x="266" y="488"/>
      <point x="286" y="480" type="curve"/>
      <point x="303" y="541" type="line"/>
      <point x="278" y="554"/>
      <point x="246" y="558"/>
      <point x="218" y="558" type="curve" smooth="yes"/>
      <point x="125" y="558"/>
      <point x="69" y="501"/>
      <point x="69" y="416" type="curve" smooth="yes"/>
      <point x="69" y="347"/>
      <point x="110" y="298"/>
      <point x="175" y="284" type="curve"/>
      <point x="175" y="279" type="line"/>
      <point x="117" y="263"/>
      <point x="73" y="218"/>
      <point x="73" y="152" type="curve" smooth="yes"/>
      <point x="73" y="48"/>
      <point x="152" y="-12"/>
    </contour>
    <contour>
      <point x="520.0" y="0.0" type="move" name="bottomright"/>
    </contour>
    <contour>
      <point x="296.0" y="558.0" type="move" name="top"/>
    </contour>
    <contour>
      <point x="520.0" y="600.0" type="move" name="topright"/>
    </contour>
  </outline>
</glyph>
<glyph name="roRua-thai" format="1">
  <advance width="532"/>
  <unicode hex="0E23"/>
  <outline>
    <contour>
      <point x="272" y="-12" type="curve" smooth="yes" name="hr00"/>
      <point x="399" y="-12"/>
      <point x="479" y="52"/>
      <point x="479" y="155" type="curve" smooth="yes"/>
      <point x="479" y="256"/>
      <point x="407" y="293"/>
      <point x="309" y="308" type="curve" smooth="yes"/>
      <point x="262" y="315" type="line" smooth="yes"/>
      <point x="195" y="325"/>
      <point x="153" y="345"/>
      <point x="153" y="403" type="curve" smooth="yes"/>
      <point x="153" y="457"/>
      <point x="195" y="490"/>
      <point x="269" y="490" type="curve" smooth="yes"/>
      <point x="339" y="490"/>
      <point x="389" y="460"/>
      <point x="418" y="425" type="curve"/>
      <point x="469" y="473" type="line"/>
      <point x="427" y="524"/>
      <point x="365" y="558"/>
      <point x="271" y="558" type="curve" smooth="yes"/>
      <point x="158" y="558"/>
      <point x="75" y="502"/>
      <point x="75" y="398" type="curve" smooth="yes"/>
      <point x="75" y="285"/>
      <point x="167" y="256"/>
      <point x="251" y="243" type="curve" smooth="yes"/>
      <point x="298" y="236" type="line" smooth="yes"/>
      <point x="370" y="225"/>
      <point x="401" y="197"/>
      <point x="401" y="147" type="curve" smooth="yes"/>
      <point x="401" y="88"/>
      <point x="358" y="56"/>
      <point x="278" y="56" type="curve" smooth="yes"/>
      <point x="206" y="56"/>
      <point x="153" y="81"/>
      <point x="112" y="137" type="curve"/>
      <point x="55" y="91" type="line"/>
      <point x="103" y="26"/>
      <point x="173" y="-12"/>
    </contour>
    <contour>
      <point x="479.0" y="0.0" type="move" name="bottomright"/>
    </contour>
    <contour>
      <point x="267.0" y="558.0" type="move" name="top"/>
    </contour>
    <contour>
      <point x="479.0" y="600.0" type="move" name="topright"/>
    </contour>
  </outline>
</glyph>
<glyph name="ru-thai" format="1">
  <advance width="611"/>
  <unicode hex="0E24"/>
  <outline>
    <contour>
      <point x="451" y="-180" type="line" name="hr00"/>
      <point x="531" y="-180" type="line"/>
      <point x="531" y="341" type="line" smooth="yes"/>
      <point x="531" y="474"/>
      <point x="445" y="558"/>
      <point x="290" y="558" type="curve" smooth="yes"/>
      <point x="158" y="558"/>
      <point x="57" y="470"/>
      <point x="49" y="348" type="curve"/>
      <point x="134" y="312" type="line"/>
      <point x="134" y="84" type="line" smooth="yes"/>
      <point x="134" y="33"/>
      <point x="163" y="0"/>
      <point x="220" y="0" type="curve" smooth="yes"/>
      <point x="278" y="0" type="line"/>
      <point x="278" y="70" type="line"/>
      <point x="214" y="70" type="line"/>
      <point x="214" y="309" type="line" smooth="yes"/>
      <point x="214" y="338"/>
      <point x="202" y="352"/>
      <point x="173" y="364" type="curve" smooth="yes"/>
      <point x="124" y="384" type="line"/>
      <point x="143" y="449"/>
      <point x="211" y="489"/>
      <point x="293" y="489" type="curve" smooth="yes"/>
      <point x="387" y="489"/>
      <point x="451" y="434"/>
      <point x="451" y="331" type="curve" smooth="yes"/>
    </contour>
    <contour>
      <point x="293.0" y="558.0" type="move" name="top"/>
    </contour>
  </outline>
</glyph>
<glyph name="loLing-thai" format="1">
  <advance width="579"/>
  <unicode hex="0E25"/>
  <outline>
    <contour>
      <point x="245" y="-10" type="curve" smooth="yes" name="hr00"/>
      <point x="262" y="-10"/>
      <point x="289" y="-8"/>
      <point x="297" y="-4" type="curve"/>
      <point x="290" y="51" type="line"/>
      <point x="282" y="50"/>
      <point x="269" y="48"/>
      <point x="251" y="48" type="curve" smooth="yes"/>
      <point x="189" y="48"/>
      <point x="149" y="81"/>
      <point x="149" y="140" type="curve" smooth="yes"/>
      <point x="149" y="163" type="line" smooth="yes"/>
      <point x="149" y="219"/>
      <point x="192" y="251"/>
      <point x="263" y="251" type="curve" smooth="yes"/>
      <point x="419" y="251" type="line"/>
      <point x="419" y="0" type="line"/>
      <point x="499" y="0" type="line"/>
      <point x="499" y="364" type="line" smooth="yes"/>
      <point x="499" y="485"/>
      <point x="420" y="558"/>
      <point x="282" y="558" type="curve" smooth="yes"/>
      <point x="167" y="558"/>
      <point x="95" y="507"/>
      <point x="61" y="442" type="curve"/>
      <point x="112" y="397" type="line"/>
      <point x="145" y="454"/>
      <point x="198" y="489"/>
      <point x="278" y="489" type="curve" smooth="yes"/>
      <point x="371" y="489"/>
      <point x="419" y="445"/>
      <point x="419" y="360" type="curve" smooth="yes"/>
      <point x="419" y="308" type="line"/>
      <point x="245" y="308" type="line" smooth="yes"/>
      <point x="134" y="308"/>
      <point x="64" y="251"/>
      <point x="64" y="150" type="curve" smooth="yes"/>
      <point x="64" y="46"/>
      <point x="135" y="-10"/>
    </contour>
    <contour>
      <point x="499.0" y="0.0" type="move" name="bottomright"/>
    </contour>
    <contour>
      <point x="280.0" y="558.0" type="move" name="top"/>
    </contour>
    <contour>
      <point x="499.0" y="600.0" type="move" name="topright"/>
    </contour>
  </outline>
</glyph>
<glyph name="lu-thai" format="1">
  <advance width="606"/>
  <unicode hex="0E26"/>
  <outline>
    <contour>
      <point x="446" y="-180" type="line" name="hr00"/>
      <point x="526" y="-180" type="line"/>
      <point x="526" y="341" type="line" smooth="yes"/>
      <point x="526" y="474"/>
      <point x="442" y="558"/>
      <point x="292" y="558" type="curve" smooth="yes"/>
      <point x="161" y="558"/>
      <point x="62" y="470"/>
      <point x="53" y="348" type="curve"/>
      <point x="138" y="312" type="line"/>
      <point x="138" y="70" type="line"/>
      <point x="74" y="70" type="line"/>
      <point x="74" y="0" type="line"/>
      <point x="134" y="0" type="line" smooth="yes"/>
      <point x="190" y="0"/>
      <point x="218" y="33"/>
      <point x="218" y="84" type="curve" smooth="yes"/>
      <point x="218" y="309" type="line" smooth="yes"/>
      <point x="218" y="338"/>
      <point x="206" y="352"/>
      <point x="177" y="364" type="curve" smooth="yes"/>
      <point x="128" y="384" type="line"/>
      <point x="146" y="449"/>
      <point x="214" y="489"/>
      <point x="294" y="489" type="curve" smooth="yes"/>
      <point x="385" y="489"/>
      <point x="446" y="434"/>
      <point x="446" y="331" type="curve" smooth="yes"/>
    </contour>
    <contour>
      <point x="294.0" y="558.0" type="move" name="top"/>
    </contour>
  </outline>
</glyph>
<glyph name="woWaen-thai" format="1">
  <advance width="536"/>
  <unicode hex="0E27"/>
  <outline>
    <contour>
      <point x="247" y="-12" type="curve" smooth="yes" name="hr00"/>
      <point x="392" y="-12"/>
      <point x="476" y="95"/>
      <point x="476" y="273" type="curve" smooth="yes"/>
      <point x="476" y="451"/>
      <point x="395" y="558"/>
      <point x="247" y="558" type="curve" smooth="yes"/>
      <point x="140" y="558"/>
      <point x="70" y="509"/>
      <point x="37" y="437" type="curve"/>
      <point x="102" y="404" type="line"/>
      <point x="127" y="457"/>
      <point x="174" y="489"/>
      <point x="245" y="489" type="curve" smooth="yes"/>
      <point x="340" y="489"/>
      <point x="390" y="422"/>
      <point x="390" y="314" type="curve" smooth="yes"/>
      <point x="390" y="232" type="line" smooth="yes"/>
      <point x="390" y="123"/>
      <point x="337" y="57"/>
      <point x="245" y="57" type="curve" smooth="yes"/>
      <point x="203" y="57"/>
      <point x="170" y="65"/>
      <point x="140" y="83" type="curve"/>
      <point x="110" y="24" type="line"/>
      <point x="145" y="1"/>
      <point x="195" y="-12"/>
    </contour>
    <contour>
      <point x="454.0" y="0.0" type="move" name="bottomright"/>
    </contour>
    <contour>
      <point x="255.0" y="558.0" type="move" name="top"/>
    </contour>
    <contour>
      <point x="454.0" y="600.0" type="move" name="topright"/>
    </contour>
  </outline>
</glyph>
<glyph name="hoHip-thai" format="1">
  <advance width="590"/>
  <unicode hex="0E2B"/>
  <outline>
    <contour>
      <point x="85" y="0" type="line" name="hr00"/>
      <point x="165" y="0" type="line"/>
      <point x="165" y="305" type="line"/>
      <point x="284" y="322" type="line" smooth="yes"/>
      <point x="377" y="336"/>
      <point x="412" y="281"/>
      <point x="419" y="214" type="curve" smooth="yes"/>
      <point x="438" y="0" type="line"/>
      <point x="522" y="0" type="line"/>
      <point x="502" y="209" type="line" smooth="yes"/>
      <point x="494" y="292"/>
      <point x="456" y="344"/>
      <point x="391" y="362" type="curve"/>
      <point x="391" y="367" type="line"/>
      <point x="453" y="376"/>
      <point x="496" y="415"/>
      <point x="503" y="477" type="curve" smooth="yes"/>
      <point x="511" y="546" type="line"/>
      <point x="427" y="546" type="line"/>
      <point x="419" y="479" type="line" smooth="yes"/>
      <point x="412" y="420"/>
      <point x="373" y="402"/>
      <point x="314" y="393" type="curve" smooth="yes"/>
      <point x="165" y="371" type="line"/>
      <point x="165" y="546" type="line"/>
      <point x="85" y="546" type="line"/>
    </contour>
    <contour>
      <point x="522.0" y="0.0" type="move" name="bottomright"/>
    </contour>
    <contour>
      <point x="299.0" y="558.0" type="move" name="top"/>
    </contour>
    <contour>
      <point x="511.0" y="600.0" type="move" name="topright"/>
    </contour>
  </outline>
</glyph>
<glyph name="loChula-thai" format="1">
  <advance width="648"/>
  <unicode hex="0E2C"/>
  <outline>
    <contour>
      <point x="85" y="0" type="line" name="hr00"/>
      <point x="163" y="0" type="line"/>
      <point x="324" y="190" type="line"/>
      <point x="484" y="0" type="line"/>
      <point x="562" y="0" type="line"/>
      <point x="562" y="413" type="line" smooth="yes"/>
      <point x="562" y="469"/>
      <point x="540" y="505"/>
      <point x="489" y="520" type="curve"/>
      <point x="489" y="525" type="line"/>
      <point x="545" y="535"/>
      <point x="573" y="566"/>
      <point x="573" y="618" type="curve" smooth="yes"/>
      <point x="573" y="678" type="line"/>
      <point x="493" y="678" type="line"/>
      <point x="493" y="609" type="line" smooth="yes"/>
      <point x="493" y="560"/>
      <point x="468" y="546"/>
      <point x="428" y="546" type="curve" smooth="yes"/>
      <point x="370" y="546" type="line"/>
      <point x="370" y="484" type="line"/>
      <point x="417" y="484" type="line" smooth="yes"/>
      <point x="464" y="484"/>
      <point x="482" y="463"/>
      <point x="482" y="420" type="curve" smooth="yes"/>
      <point x="482" y="273" type="line"/>
      <point x="486" y="98" type="line"/>
      <point x="482" y="98" type="line"/>
      <point x="343" y="263" type="line"/>
      <point x="305" y="263" type="line"/>
      <point x="165" y="98" type="line"/>
      <point x="161" y="98" type="line"/>
      <point x="165" y="273" type="line"/>
      <point x="165" y="546" type="line"/>
      <point x="85" y="546" type="line"/>
    </contour>
    <contour>
      <point x="562.0" y="0.0" type="move" name="bottomright"/>
    </contour>
    <contour>
      <point x="270.0" y="558.0" type="move" name="top"/>
    </contour>
  </outline>
</glyph>
<glyph name="oAng-thai" format="1">
  <advance width="604"/>
  <unicode hex="0E2D"/>
  <outline>
    <contour>
      <point x="295" y="-12" type="curve" smooth="yes" name="hr00"/>
      <point x="457" y="-12"/>
      <point x="544" y="99"/>
      <point x="544" y="273" type="curve" smooth="yes"/>
      <point x="544" y="451"/>
      <point x="450" y="558"/>
      <point x="290" y="558" type="curve" smooth="yes"/>
      <point x="170" y="558"/>
      <point x="93" y="508"/>
      <point x="56" y="443" type="curve"/>
      <point x="108" y="397" type="line"/>
      <point x="143" y="453"/>
      <point x="204" y="489"/>
      <point x="286" y="489" type="curve" smooth="yes"/>
      <point x="393" y="489"/>
      <point x="458" y="423"/>
      <point x="458" y="312" type="curve" smooth="yes"/>
      <point x="458" y="230" type="line" smooth="yes"/>
      <point x="458" y="120"/>
      <point x="399" y="55"/>
      <point x="299" y="55" type="curve" smooth="yes"/>
      <point x="210" y="55"/>
      <point x="146" y="97"/>
      <point x="146" y="191" type="curve" smooth="yes"/>
      <point x="146" y="232" type="line"/>
      <point x="234" y="232" type="line"/>
      <point x="234" y="301" type="line"/>
      <point x="128" y="301" type="line" smooth="yes"/>
      <point x="76" y="301"/>
      <point x="65" y="278"/>
      <point x="65" y="238" type="curve" smooth="yes"/>
      <point x="65" y="187" type="line" smooth="yes"/>
      <point x="65" y="67"/>
      <point x="166" y="-12"/>
    </contour>
    <contour>
      <point x="507.0" y="0.0" type="move" name="bottomright"/>
    </contour>
    <contour>
      <point x="293.0" y="558.0" type="move" name="top"/>
    </contour>
    <contour>
      <point x="507.0" y="600.0" type="move" name="topright"/>
    </contour>
  </outline>
</glyph>
<glyph name="paiyannoi-thai" format="1">
  <advance width="519"/>
  <unicode hex="0E2F"/>
  <outline>
    <contour>
      <point x="354" y="0" type="line" name="hr00"/>
      <point x="434" y="0" type="line"/>
      <point x="434" y="546" type="line"/>
      <point x="354" y="546" type="line"/>
      <point x="354" y="501" type="line" smooth="yes"/>
      <point x="354" y="438"/>
      <point x="309" y="399"/>
      <point x="239" y="399" type="curve" smooth="yes"/>
      <point x="220" y="399" type="line" smooth="yes"/>
      <point x="162" y="399"/>
      <point x="121" y="428"/>
      <point x="121" y="499" type="curve" smooth="yes"/>
      <point x="121" y="546" type="line"/>
      <point x="41" y="546" type="line"/>
      <point x="41" y="489" type="line" smooth="yes"/>
      <point x="41" y="383"/>
      <point x="106" y="332"/>
      <point x="195" y="332" type="curve" smooth="yes"/>
      <point x="290" y="332"/>
      <point x="332" y="376"/>
      <point x="350" y="423" type="curve"/>
      <point x="354" y="423" type="line"/>
    </contour>
  </outline>
</glyph>
<glyph name="saraA-thai" format="1">
  <advance width="417"/>
  <unicode hex="0E30"/>
  <outline>
    <contour>
      <point x="171" y="100" type="curve" smooth="yes" name="hr00"/>
      <point x="337" y="100" type="line"/>
      <point x="337" y="169" type="line"/>
      <point x="164" y="169" type="line"/>
      <point x="164" y="223" type="line"/>
      <point x="84" y="223" type="line"/>
      <point x="84" y="180" type="line" smooth="yes"/>
      <point x="84" y="132"/>
      <point x="111" y="100"/>
    </contour>
    <contour>
      <point x="171" y="357" type="curve" smooth="yes"/>
      <point x="337" y="357" type="line"/>
      <point x="337" y="426" type="line"/>
      <point x="164" y="426" type="line"/>
      <point x="164" y="480" type="line"/>
      <point x="84" y="480" type="line"/>
      <point x="84" y="437" type="line" smooth="yes"/>
      <point x="84" y="389"/>
      <point x="111" y="357"/>
    </contour>
  </outline>
</glyph>
<glyph name="maiHanaKat-thai" format="1">
  <advance width="0"/>
  <unicode hex="0E31"/>
  <outline>
    <contour>
      <point x="-84" y="653" type="curve" smooth="yes" name="hr00"/>
      <point x="164" y="653" type="line"/>
      <point x="164" y="722" type="line"/>
      <point x="-91" y="722" type="line"/>
      <point x="-91" y="795" type="line"/>
      <point x="-171" y="795" type="line"/>
      <point x="-171" y="733" type="line" smooth="yes"/>
      <point x="-171" y="685"/>
      <point x="-144" y="653"/>
    </contour>
    <contour>
      <point x="0.0" y="600.0" type="move" name="_topright"/>
    </contour>
    <contour>
      <point x="0.0" y="800.0" type="move" name="topright"/>
    </contour>
  </outline>
</glyph>
<glyph name="saraAa-thai" format="1">
  <advance width="483"/>
  <unicode hex="0E32"/>
  <outline>
    <contour>
      <point x="323" y="0" type="line" name="hr00"/>
      <point x="403" y="0" type="line"/>
      <point x="403" y="382" type="line" smooth="yes"/>
      <point x="403" y="493"/>
      <point x="333" y="558"/>
      <point x="209" y="558" type="curve" smooth="yes"/>
      <point x="114" y="558"/>
      <point x="55" y="514"/>
      <point x="25" y="456" type="curve"/>
      <point x="74" y="413" type="line"/>
      <point x="102" y="460"/>
      <point x="141" y="490"/>
      <point x="204" y="490" type="curve" smooth="yes"/>
      <point x="284" y="490"/>
      <point x="323" y="450"/>
      <point x="323" y="375" type="curve" smooth="yes"/>
    </contour>
    <contour>
      <point x="403.0" y="600.0" type="move" name="topright"/>
    </contour>
  </outline>
</glyph>
<glyph name="saraIi-thai" format="1">
  <advance width="0"/>
  <unicode hex="0E35"/>
  <outline>
    <contour>
      <point x="-408" y="653" type="line" name="hr00"/>
      <point x="0" y="653" type="line"/>
      <point x="0" y="795" type="line"/>
      <point x="-78" y="795" type="line"/>
      <point x="-78" y="722" type="line"/>
      <point x="-408" y="722" type="line"/>
    </contour>
    <contour>
      <point x="0.0" y="600.0" type="move" name="_topright"/>
    </contour>
    <contour>
      <point x="0.0" y="800.0" type="move" name="topright"/>
    </contour>
  </outline>
</glyph>
<glyph name="saraUe-thai" format="1">
  <advance width="0"/>
  <unicode hex="0E36"/>
  <outline>
    <contour>
      <point x="-407" y="653" type="line" name="hr00"/>
      <point x="-41" y="653" type="line" smooth="yes"/>
      <point x="19" y="653"/>
      <point x="59" y="690"/>
      <point x="59" y="747" type="curve" smooth="yes"/>
      <point x="59" y="803"/>
      <point x="19" y="839"/>
      <point x="-41" y="839" type="curve" smooth="yes"/>
      <point x="-102" y="839"/>
      <point x="-141" y="803"/>
      <point x="-141" y="747" type="curve" smooth="yes"/>
      <point x="-141" y="738"/>
      <point x="-140" y="730"/>
      <point x="-138" y="722" type="curve"/>
      <point x="-407" y="722" type="line"/>
    </contour>
    <contour>
      <point x="-41" y="701" type="curve" smooth="yes"/>
      <point x="-71" y="701"/>
      <point x="-87" y="716"/>
      <point x="-87" y="742" type="curve" smooth="yes"/>
      <point x="-87" y="752" type="line" smooth="yes"/>
      <point x="-87" y="778"/>
      <point x="-71" y="793"/>
      <point x="-41" y="793" type="curve" smooth="yes"/>
      <point x="-11" y="793"/>
      <point x="5" y="778"/>
      <point x="5" y="752" type="curve" smooth="yes"/>
      <point x="5" y="742" type="line" smooth="yes"/>
      <point x="5" y="716"/>
      <point x="-11" y="701"/>
    </contour>
    <contour>
      <point x="0.0" y="600.0" type="move" name="_topright"/>
    </contour>
    <contour>
      <point x="-3.0" y="840.0" type="move" name="topright"/>
    </contour>
  </outline>
</glyph>
<glyph name="saraUee-thai" format="1">
  <advance width="0"/>
  <unicode hex="0E37"/>
  <outline>
    <contour>
      <point x="-408" y="653" type="line" name="hr00"/>
      <point x="0" y="653" type="line"/>
      <point x="0" y="795" type="line"/>
      <point x="-75" y="795" type="line"/>
      <point x="-75" y="718" type="line"/>
      <point x="-147" y="718" type="line"/>
      <point x="-147" y="795" type="line"/>
      <point x="-218" y="795" type="line"/>
      <point x="-218" y="722" type="line"/>
      <point x="-408" y="722" type="line"/>
    </contour>
    <contour>
      <point x="0.0" y="600.0" type="move" name="_topright"/>
    </contour>
    <contour>
      <point x="0.0" y="800.0" type="move" name="topright"/>
    </contour>
  </outline>
</glyph>
<glyph name="saraU-thai" format="1">
  <advance width="0"/>
  <unicode hex="0E38"/>
  <outline>
    <contour>
      <point x="-76" y="-344" type="line" name="hr00"/>
      <point x="0" y="-344" type="line"/>
      <point x="0" y="-172" type="line" smooth="yes"/>
      <point x="0" y="-136"/>
      <point x="-17" y="-113"/>
      <point x="-57" y="-113" type="curve" smooth="yes"/>
      <point x="-142" y="-113" type="line"/>
      <point x="-142" y="-177" type="line"/>
      <point x="-76" y="-177" type="line"/>
    </contour>
    <contour>
      <point x="0.0" y="0.0" type="move" name="_bottomright"/>
    </contour>
  </outline>
</glyph>
<glyph name="saraUu-thai" format="1">
  <advance width="0"/>
  <unicode hex="0E39"/>
  <outline>
    <contour>
      <point x="-137" y="-350" type="curve" smooth="yes" name="hr00"/>
      <point x="-46" y="-350"/>
      <point x="0" y="-296"/>
      <point x="0" y="-226" type="curve" smooth="yes"/>
      <point x="0" y="-113" type="line"/>
      <point x="-76" y="-113" type="line"/>
      <point x="-76" y="-214" type="line" smooth="yes"/>
      <point x="-76" y="-259"/>
      <point x="-91" y="-288"/>
      <point x="-137" y="-288" type="curve" smooth="yes"/>
      <point x="-182" y="-288"/>
      <point x="-197" y="-259"/>
      <point x="-197" y="-214" type="curve" smooth="yes"/>
      <point x="-197" y="-164" type="line" smooth="yes"/>
      <point x="-197" y="-133"/>
      <point x="-214" y="-113"/>
      <point x="-254" y="-113" type="curve" smooth="yes"/>
      <point x="-336" y="-113" type="line"/>
      <point x="-336" y="-177" type="line"/>
      <point x="-270" y="-177" type="line"/>
      <point x="-270" y="-231" type="line" smooth="yes"/>
      <point x="-270" y="-298"/>
      <point x="-223" y="-350"/>
    </contour>
    <contour>
      <point x="0.0" y="0.0" type="move" name="_bottomright"/>
    </contour>
  </outline>
</glyph>
<glyph name="baht" format="1">
  <advance width="641"/>
  <unicode hex="0E3F"/>
  <outline>
    <contour>
      <point x="282" y="-84" type="line" name="hr00"/>
      <point x="349" y="-84" type="line"/>
      <point x="349" y="21" type="line"/>
      <point x="403" y="21" type="line" smooth="yes"/>
      <point x="507" y="21"/>
      <point x="581" y="101"/>
      <point x="581" y="208" type="curve" smooth="yes"/>
      <point x="581" y="315"/>
      <point x="511" y="353"/>
      <point x="440" y="363" type="curve"/>
      <point x="440" y="368" type="line"/>
      <point x="506" y="381"/>
      <point x="555" y="422"/>
      <point x="555" y="509" type="curve" smooth="yes"/>
      <point x="555" y="611"/>
      <point x="488" y="677"/>
      <point x="376" y="677" type="curve" smooth="yes"/>
      <point x="349" y="677" type="line"/>
      <point x="349" y="780" type="line"/>
      <point x="282" y="780" type="line"/>
      <point x="282" y="677" type="line"/>
      <point x="93" y="677" type="line"/>
      <point x="93" y="21" type="line"/>
      <point x="282" y="21" type="line"/>
    </contour>
    <contour>
      <point x="347" y="89" type="line"/>
      <point x="347" y="329" type="line"/>
      <point x="383" y="329" type="line" smooth="yes"/>
      <point x="458" y="329"/>
      <point x="502" y="292"/>
      <point x="502" y="227" type="curve" smooth="yes"/>
      <point x="502" y="190" type="line" smooth="yes"/>
      <point x="502" y="126"/>
      <point x="458" y="89"/>
      <point x="383" y="89" type="curve" smooth="yes"/>
    </contour>
    <contour>
      <point x="347" y="388" type="line"/>
      <point x="347" y="609" type="line"/>
      <point x="375" y="609" type="line" smooth="yes"/>
      <point x="443" y="609"/>
      <point x="475" y="575"/>
      <point x="475" y="516" type="curve" smooth="yes"/>
      <point x="475" y="482" type="line" smooth="yes"/>
      <point x="475" y="422"/>
      <point x="443" y="388"/>
      <point x="375" y="388" type="curve" smooth="yes"/>
    </contour>
    <contour>
      <point x="169" y="89" type="line"/>
      <point x="169" y="329" type="line"/>
      <point x="284" y="329" type="line"/>
      <point x="284" y="89" type="line"/>
    </contour>
    <contour>
      <point x="169" y="388" type="line"/>
      <point x="169" y="609" type="line"/>
      <point x="284" y="609" type="line"/>
      <point x="284" y="388" type="line"/>
    </contour>
  </outline>
</glyph>
<glyph name="saraE-thai" format="1">
  <advance width="316"/>
  <unicode hex="0E40"/>
  <outline>
    <contour>
      <point x="201" y="0" type="curve" smooth="yes" name="hr00"/>
      <point x="280" y="0" type="line"/>
      <point x="280" y="70" type="line"/>
      <point x="196" y="70" type="line"/>
      <point x="196" y="546" type="line"/>
      <point x="116" y="546" type="line"/>
      <point x="116" y="84" type="line" smooth="yes"/>
      <point x="116" y="33"/>
      <point x="145" y="0"/>
    </contour>
    <contour>
      <point x="240.0" y="0.0" type="move" name="bottomright"/>
    </contour>
    <contour>
      <point x="196.0" y="600.0" type="move" name="topright"/>
    </contour>
  </outline>
</glyph>
<glyph name="saraO-thai" format="1">
  <advance width="316"/>
  <unicode hex="0E42"/>
  <outline>
    <contour>
      <point x="202" y="0" type="curve" smooth="yes" name="hr00"/>
      <point x="280" y="0" type="line"/>
      <point x="280" y="70" type="line"/>
      <point x="196" y="70" type="line"/>
      <point x="196" y="621" type="line" smooth="yes"/>
      <point x="196" y="657"/>
      <point x="185" y="672"/>
      <point x="156" y="684" type="curve" smooth="yes"/>
      <point x="64" y="722" type="line"/>
      <point x="69" y="780"/>
      <point x="120" y="806"/>
      <point x="180" y="806" type="curve" smooth="yes"/>
      <point x="231" y="806"/>
      <point x="264" y="784"/>
      <point x="285" y="759" type="curve"/>
      <point x="336" y="807" type="line"/>
      <point x="301" y="847"/>
      <point x="253" y="873"/>
      <point x="175" y="873" type="curve" smooth="yes"/>
      <point x="66" y="873"/>
      <point x="-8" y="806"/>
      <point x="-8" y="700" type="curve" smooth="yes"/>
      <point x="-8" y="686" type="line"/>
      <point x="116" y="632" type="line"/>
      <point x="116" y="84" type="line" smooth="yes"/>
      <point x="116" y="33"/>
      <point x="145" y="0"/>
    </contour>
    <contour>
      <point x="240.0" y="0.0" type="move" name="bottomright"/>
    </contour>
  </outline>
</glyph>
<glyph name="saraAiMaimuan-thai" format="1">
  <advance width="316"/>
  <unicode hex="0E43"/>
  <outline>
    <contour>
      <point x="202" y="0" type="curve" smooth="yes" name="hr00"/>
      <point x="280" y="0" type="line"/>
      <point x="280" y="70" type="line"/>
      <point x="196" y="70" type="line"/>
      <point x="196" y="522" type="line" smooth="yes"/>
      <point x="196" y="563"/>
      <point x="222" y="590"/>
      <point x="249" y="617" type="curve" smooth="yes"/>
      <point x="279" y="648"/>
      <point x="311" y="681"/>
      <point x="311" y="740" type="curve" smooth="yes"/>
      <point x="311" y="815"/>
      <point x="258" y="873"/>
      <point x="160" y="873" type="curve" smooth="yes"/>
      <point x="71" y="873"/>
      <point x="16" y="831"/>
      <point x="-10" y="759" type="curve"/>
      <point x="52" y="723" type="line"/>
      <point x="67" y="777"/>
      <point x="101" y="806"/>
      <point x="153" y="806" type="curve" smooth="yes"/>
      <point x="199" y="806"/>
      <point x="232" y="781"/>
      <point x="232" y="732" type="curve" smooth="yes"/>
      <point x="232" y="696"/>
      <point x="212" y="672"/>
      <point x="189" y="649" type="curve" smooth="yes"/>
      <point x="156" y="616"/>
      <point x="116" y="584"/>
      <point x="116" y="519" type="curve" smooth="yes"/>
      <point x="116" y="84" type="line" smooth="yes"/>
      <point x="116" y="33"/>
      <point x="145" y="0"/>
    </contour>
  </outline>
</glyph>
<glyph name="maiyamok-thai" format="1">
  <advance width="569"/>
  <unicode hex="0E46"/>
  <outline>
    <contour>
      <point x="403" y="-180" type="line" name="hr00"/>
      <point x="483" y="-180" type="line"/>
      <point x="483" y="421" type="line" smooth="yes"/>
      <point x="483" y="501"/>
      <point x="442" y="558"/>
      <point x="368" y="558" type="curve" smooth="yes"/>
      <point x="318" y="558"/>
      <point x="282" y="531"/>
      <point x="270" y="477" type="curve"/>
      <point x="265" y="477" type="line"/>
      <point x="254" y="531"/>
      <point x="217" y="558"/>
      <point x="168" y="558" type="curve" smooth="yes"/>
      <point x="85" y="558"/>
      <point x="52" y="500"/>
      <point x="52" y="398" type="curve" smooth="yes"/>
      <point x="52" y="293"/>
      <point x="102" y="229"/>
      <point x="193" y="229" type="curve" smooth="yes"/>
      <point x="204" y="229"/>
      <point x="223" y="230"/>
      <point x="242" y="234" type="curve"/>
      <point x="234" y="295" type="line"/>
      <point x="220" y="292"/>
      <point x="213" y="292"/>
      <point x="203" y="292" type="curve" smooth="yes"/>
      <point x="152" y="292"/>
      <point x="134" y="327"/>
      <point x="134" y="372" type="curve" smooth="yes"/>
      <point x="134" y="415" type="line" smooth="yes"/>
      <point x="134" y="457"/>
      <point x="146" y="489"/>
      <point x="187" y="489" type="curve" smooth="yes"/>
      <point x="225" y="489"/>
      <point x="236" y="447"/>
      <point x="240" y="406" type="curve"/>
      <point x="292" y="406" type="line"/>
      <point x="296" y="447"/>
      <point x="310" y="489"/>
      <point x="348" y="489" type="curve" smooth="yes"/>
      <point x="392" y="489"/>
      <point x="403" y="456"/>
      <point x="403" y="411" type="curve" smooth="yes"/>
    </contour>
  </outline>
</glyph>
<glyph name="maitaikhu-thai" format="1">
  <advance width="0"/>
  <unicode hex="0E47"/>
  <outline>
    <contour>
      <point x="-291" y="646" type="curve" smooth="yes" name="hr00"/>
      <point x="-246" y="646"/>
      <point x="-211" y="668"/>
      <point x="-199" y="714" type="curve"/>
      <point x="-195" y="714" type="line"/>
      <point x="-182" y="668"/>
      <point x="-142" y="646"/>
      <point x="-104" y="646" type="curve" smooth="yes"/>
      <point x="-39" y="646"/>
      <point x="0" y="687"/>
      <point x="0" y="754" type="curve" smooth="yes"/>
      <point x="0" y="785" type="line"/>
      <point x="-67" y="785" type="line"/>
      <point x="-67" y="762" type="line" smooth="yes"/>
      <point x="-67" y="724"/>
      <point x="-89" y="705"/>
      <point x="-116" y="705" type="curve" smooth="yes"/>
      <point x="-154" y="705"/>
      <point x="-166" y="742"/>
      <point x="-170" y="770" type="curve"/>
      <point x="-224" y="770" type="line"/>
      <point x="-227" y="743"/>
      <point x="-237" y="705"/>
      <point x="-275" y="705" type="curve" smooth="yes"/>
      <point x="-308" y="705"/>
      <point x="-327" y="726"/>
      <point x="-327" y="765" type="curve" smooth="yes"/>
      <point x="-327" y="805"/>
      <point x="-305" y="829"/>
      <point x="-267" y="829" type="curve" smooth="yes"/>
      <point x="0" y="829" type="line"/>
      <point x="0" y="889" type="line"/>
      <point x="-264" y="889" type="line" smooth="yes"/>
      <point x="-346" y="889"/>
      <point x="-395" y="837"/>
      <point x="-395" y="762" type="curve" smooth="yes"/>
      <point x="-395" y="692"/>
      <point x="-352" y="646"/>
    </contour>
    <contour>
      <point x="0.0" y="600.0" type="move" name="_topright"/>
    </contour>
    <contour>
      <point x="0.0" y="875.0" type="move" name="topright"/>
    </contour>
  </outline>
</glyph>
<glyph name="maiEk-thai" format="1">
  <advance width="0"/>
  <unicode hex="0E48"/>
  <outline>
    <contour>
      <point x="-78" y="653" type="line" name="hr00"/>
      <point x="0" y="653" type="line"/>
      <point x="0" y="838" type="line"/>
      <point x="-78" y="838" type="line"/>
    </contour>
    <contour>
      <point x="0.0" y="600.0" type="move" name="_topright"/>
    </contour>
    <contour>
      <point x="0.0" y="845.0" type="move" name="topright"/>
    </contour>
  </outline>
</glyph>
<glyph name="maiTho-thai" format="1">
  <advance width="0"/>
  <unicode hex="0E49"/>
  <outline>
    <contour>
      <point x="-157" y="662" type="line" name="hr00"/>
      <point x="129" y="662" type="line"/>
      <point x="129" y="722" type="line"/>
      <point x="-46" y="722" type="line"/>
      <point x="-46" y="726" type="line"/>
      <point x="-21" y="738"/>
      <point x="-9" y="769"/>
      <point x="-9" y="793" type="curve" smooth="yes"/>
      <point x="-9" y="837"/>
      <point x="-41" y="866"/>
      <point x="-101" y="866" type="curve" smooth="yes"/>
      <point x="-157" y="866" type="line"/>
      <point x="-157" y="806" type="line"/>
      <point x="-131" y="806" type="line" smooth="yes"/>
      <point x="-95" y="806"/>
      <point x="-81" y="793"/>
      <point x="-81" y="759" type="curve" smooth="yes"/>
      <point x="-81" y="722" type="line"/>
      <point x="-157" y="722" type="line"/>
    </contour>
    <contour>
      <point x="0.0" y="600.0" type="move" name="_topright"/>
    </contour>
  </outline>
</glyph>
<glyph name="maiChattawa-thai" format="1">
  <advance width="0"/>
  <unicode hex="0E4B"/>
  <outline>
    <contour>
      <point x="-66" y="653" type="line" name="hr00"/>
      <point x="0" y="653" type="line"/>
      <point x="0" y="734" type="line"/>
      <point x="81" y="734" type="line"/>
      <point x="81" y="795" type="line"/>
      <point x="0" y="795" type="line"/>
      <point x="0" y="876" type="line"/>
      <point x="-66" y="876" type="line"/>
      <point x="-66" y="795" type="line"/>
      <point x="-147" y="795" type="line"/>
      <point x="-147" y="734" type="line"/>
      <point x="-66" y="734" type="line"/>
    </contour>
    <contour>
      <point x="0.0" y="600.0" type="move" name="_topright"/>
    </contour>
  </outline>
</glyph>
<glyph name="nikhahit-thai" format="1">
  <advance width="0"/>
  <unicode hex="0E4D"/>
  <outline>
    <contour>
      <point x="-40" y="670" type="curve" smooth="yes" name="hr00"/>
      <point x="-71" y="670"/>
      <point x="-89" y="688"/>
      <point x="-89" y="714" type="curve" smooth="yes"/>
      <point x="-89" y="734" type="line" smooth="yes"/>
      <point x="-89" y="760"/>
      <point x="-71" y="778"/>
      <point x="-40" y="778" type="curve" smooth="yes"/>
      <point x="-9" y="778"/>
      <point x="9" y="760"/>
      <point x="9" y="734" type="curve" smooth="yes"/>
      <point x="9" y="714" type="line" smooth="yes"/>
      <point x="9" y="688"/>
      <point x="-9" y="670"/>
    </contour>
    <contour>
      <point x="-40" y="617" type="curve" smooth="yes"/>
      <point x="28" y="617"/>
      <point x="71" y="659"/>
      <point x="71" y="724" type="curve" smooth="yes"/>
      <point x="71" y="789"/>
      <point x="28" y="831"/>
      <point x="-40" y="831" type="curve" smooth="yes"/>
      <point x="-108" y="831"/>
      <point x="-151" y="789"/>
      <point x="-151" y="724" type="curve" smooth="yes"/>
      <point x="-151" y="659"/>
      <point x="-108" y="617"/>
    </contour>
    <contour>
      <point x="0.0" y="600.0" type="move" name="_topright"/>
    </contour>
    <contour>
      <point x="-3.0" y="840.0" type="move" name="topright"/>
    </contour>
  </outline>
</glyph>
<glyph name="fongman-thai" format="1">
  <advance width="640"/>
  <unicode hex="0E4F"/>
  <outline>
    <contour>
      <point x="320" y="204" type="curve" smooth="yes" name="hr00"/>
      <point x="367" y="204"/>
      <point x="386" y="228"/>
      <point x="386" y="263" type="curve" smooth="yes"/>
      <point x="386" y="281" type="line" smooth="yes"/>
      <point x="386" y="316"/>
      <point x="367" y="340"/>
      <point x="320" y="340" type="curve" smooth="yes"/>
      <point x="273" y="340"/>
      <point x="254" y="316"/>
      <point x="254" y="281" type="curve" smooth="yes"/>
      <point x="254" y="263" type="line" smooth="yes"/>
      <point x="254" y="228"/>
      <point x="273" y="204"/>
    </contour>
    <contour>
      <point x="320" y="59" type="curve" smooth="yes"/>
      <point x="214" y="59"/>
      <point x="145" y="119"/>
      <point x="145" y="230" type="curve" smooth="yes"/>
      <point x="145" y="316" type="line" smooth="yes"/>
      <point x="145" y="427"/>
      <point x="214" y="487"/>
      <point x="320" y="487" type="curve" smooth="yes"/>
      <point x="426" y="487"/>
      <point x="495" y="427"/>
      <point x="495" y="316" type="curve" smooth="yes"/>
      <point x="495" y="230" type="line" smooth="yes"/>
      <point x="495" y="119"/>
      <point x="426" y="59"/>
    </contour>
    <contour>
      <point x="320" y="-12" type="curve" smooth="yes"/>
      <point x="477" y="-12"/>
      <point x="581" y="97"/>
      <point x="581" y="273" type="curve" smooth="yes"/>
      <point x="581" y="449"/>
      <point x="477" y="558"/>
      <point x="320" y="558" type="curve" smooth="yes"/>
      <point x="163" y="558"/>
      <point x="59" y="449"/>
      <point x="59" y="273" type="curve" smooth="yes"/>
      <point x="59" y="97"/>
      <point x="163" y="-12"/>
    </contour>
  </outline>
</glyph>
<glyph name="zero-thai" format="1">
  <advance width="592"/>
  <unicode hex="0E50"/>
  <outline>
    <contour>
      <point x="296" y="59" type="curve" smooth="yes" name="hr00"/>
      <point x="203" y="59"/>
      <point x="142" y="111"/>
      <point x="142" y="211" type="curve" smooth="yes"/>
      <point x="142" y="285" type="line" smooth="yes"/>
      <point x="142" y="385"/>
      <point x="204" y="437"/>
      <point x="296" y="437" type="curve" smooth="yes"/>
      <point x="389" y="437"/>
      <point x="450" y="385"/>
      <point x="450" y="285" type="curve" smooth="yes"/>
      <point x="450" y="211" type="line" smooth="yes"/>
      <point x="450" y="111"/>
      <point x="388" y="59"/>
    </contour>
    <contour>
      <point x="296" y="-12" type="curve" smooth="yes"/>
      <point x="441" y="-12"/>
      <point x="536" y="87"/>
      <point x="536" y="248" type="curve" smooth="yes"/>
      <point x="536" y="409"/>
      <point x="441" y="508"/>
      <point x="296" y="508" type="curve" smooth="yes"/>
      <point x="151" y="508"/>
      <point x="56" y="409"/>
      <point x="56" y="248" type="curve" smooth="yes"/>
      <point x="56" y="87"/>
      <point x="151" y="-12"/>
    </contour>
  </outline>
</glyph>
<glyph name="one-thai" format="1">
  <advance width="562"/>
  <unicode hex="0E51"/>
  <outline>
    <contour>
      <point x="180" y="-39" type="line" name="hr00"/>
      <point x="372" y="-38"/>
      <point x="506" y="57"/>
      <point x="506" y="254" type="curve" smooth="yes"/>
      <point x="506" y="418"/>
      <point x="412" y="508"/>
      <point x="265" y="508" type="curve" smooth="yes"/>
      <point x="138" y="508"/>
      <point x="48" y="435"/>
      <point x="48" y="320" type="curve" smooth="yes"/>
      <point x="48" y="217"/>
      <point x="111" y="157"/>
      <point x="217" y="157" type="curve" smooth="yes"/>
      <point x="234" y="157"/>
      <point x="259" y="158"/>
      <point x="277" y="164" type="curve"/>
      <point x="269" y="230" type="line"/>
      <point x="256" y="227"/>
      <point x="243" y="226"/>
      <point x="227" y="226" type="curve" smooth="yes"/>
      <point x="161" y="226"/>
      <point x="133" y="265"/>
      <point x="133" y="319" type="curve" smooth="yes"/>
      <point x="133" y="333" type="line" smooth="yes"/>
      <point x="133" y="390"/>
      <point x="184" y="439"/>
      <point x="267" y="439" type="curve" smooth="yes"/>
      <point x="359" y="439"/>
      <point x="420" y="379"/>
      <point x="420" y="268" type="curve" smooth="yes"/>
      <point x="420" y="240" type="line" smooth="yes"/>
      <point x="420" y="85"/>
      <point x="318" y="32"/>
      <point x="174" y="29" type="curve"/>
    </contour>
  </outline>
</glyph>
<glyph name="three-thai" format="1">
  <advance width="723"/>
  <unicode hex="0E53"/>
  <outline>
    <contour>
      <point x="278" y="-12" type="curve" smooth="yes" name="hr00"/>
      <point x="300" y="-12"/>
      <point x="326" y="-11"/>
      <point x="351" y="-6" type="curve"/>
      <point x="341" y="61" type="line"/>
      <point x="325" y="58"/>
      <point x="307" y="57"/>
      <point x="293" y="57" type="curve" smooth="yes"/>
      <point x="191" y="57"/>
      <point x="146" y="124"/>
      <point x="146" y="234" type="curve" smooth="yes"/>
      <point x="146" y="282" type="line" smooth="yes"/>
      <point x="146" y="385"/>
      <point x="176" y="439"/>
      <point x="239" y="439" type="curve" smooth="yes"/>
      <point x="296" y="439"/>
      <point x="316" y="393"/>
      <point x="316" y="345" type="curve" smooth="yes"/>
      <point x="316" y="172" type="line"/>
      <point x="393" y="172" type="line"/>
      <point x="393" y="345" type="line" smooth="yes"/>
      <point x="393" y="393"/>
      <point x="420" y="439"/>
      <point x="479" y="439" type="curve" smooth="yes"/>
      <point x="540" y="439"/>
      <point x="563" y="396"/>
      <point x="563" y="334" type="curve" smooth="yes"/>
      <point x="563" y="0" type="line"/>
      <point x="643" y="0" type="line"/>
      <point x="643" y="343" type="line" smooth="yes"/>
      <point x="643" y="443"/>
      <point x="592" y="508"/>
      <point x="493" y="508" type="curve" smooth="yes"/>
      <point x="407" y="508"/>
      <point x="371" y="465"/>
      <point x="359" y="427" type="curve"/>
      <point x="353" y="427" type="line"/>
      <point x="343" y="465"/>
      <point x="304" y="508"/>
      <point x="231" y="508" type="curve" smooth="yes"/>
      <point x="118" y="508"/>
      <point x="60" y="420"/>
      <point x="60" y="256" type="curve" smooth="yes"/>
      <point x="60" y="94"/>
      <point x="137" y="-12"/>
    </contour>
  </outline>
</glyph>
<glyph name="four-thai" format="1">
  <advance width="556"/>
  <unicode hex="0E54"/>
  <outline>
    <contour>
      <point x="301" y="0" type="curve" smooth="yes" name="hr00"/>
      <point x="511" y="0" type="line"/>
      <point x="511" y="69" type="line"/>
      <point x="445" y="69"/>
      <point x="405" y="128"/>
      <point x="405" y="193" type="curve" smooth="yes"/>
      <point x="405" y="228" type="line"/>
      <point x="494" y="228" type="line"/>
      <point x="494" y="297" type="line"/>
      <point x="410" y="297" type="line" smooth="yes"/>
      <point x="354" y="297"/>
      <point x="325" y="271"/>
      <point x="325" y="229" type="curve" smooth="yes"/>
      <point x="325" y="214" type="line" smooth="yes"/>
      <point x="325" y="129"/>
      <point x="375" y="91"/>
      <point x="430" y="74" type="curve"/>
      <point x="430" y="69" type="line"/>
      <point x="301" y="69" type="line" smooth="yes"/>
      <point x="200" y="69"/>
      <point x="142" y="118"/>
      <point x="142" y="212" type="curve" smooth="yes"/>
      <point x="142" y="260" type="line" smooth="yes"/>
      <point x="142" y="342"/>
      <point x="182" y="382"/>
      <point x="264" y="404" type="curve" smooth="yes"/>
      <point x="367" y="431" type="line" smooth="yes"/>
      <point x="452" y="453"/>
      <point x="473" y="471"/>
      <point x="480" y="520" type="curve" smooth="yes"/>
      <point x="491" y="593" type="line"/>
      <point x="411" y="593" type="line"/>
      <point x="402" y="530" type="line" smooth="yes"/>
      <point x="398" y="505"/>
      <point x="385" y="500"/>
      <point x="355" y="492" type="curve" smooth="yes"/>
      <point x="240" y="462" type="line" smooth="yes"/>
      <point x="157" y="440"/>
      <point x="56" y="393"/>
      <point x="56" y="240" type="curve" smooth="yes"/>
      <point x="56" y="85"/>
      <point x="148" y="0"/>
    </contour>
  </outline>
</glyph>
<glyph name="five-thai" format="1">
  <advance width="556"/>
  <unicode hex="0E55"/>
  <outline>
    <contour>
      <point x="301" y="0" type="curve" smooth="yes" name="hr00"/>
      <point x="511" y="0" type="line"/>
      <point x="511" y="69" type="line"/>
      <point x="445" y="69"/>
      <point x="405" y="128"/>
      <point x="405" y="193" type="curve" smooth="yes"/>
      <point x="405" y="228" type="line"/>
      <point x="494" y="228" type="line"/>
      <point x="494" y="297" type="line"/>
      <point x="410" y="297" type="line" smooth="yes"/>
      <point x="354" y="297"/>
      <point x="325" y="271"/>
      <point x="325" y="229" type="curve" smooth="yes"/>
      <point x="325" y="214" type="line" smooth="yes"/>
      <point x="325" y="129"/>
      <point x="375" y="91"/>
      <point x="430" y="74" type="curve"/>
      <point x="430" y="69" type="line"/>
      <point x="301" y="69" type="line" smooth="yes"/>
      <point x="200" y="69"/>
      <point x="142" y="118"/>
      <point x="142" y="212" type="curve" smooth="yes"/>
      <point x="142" y="260" type="line" smooth="yes"/>
      <point x="142" y="342"/>
      <point x="182" y="382"/>
      <point x="264" y="404" type="curve" smooth="yes"/>
      <point x="367" y="431" type="line" smooth="yes"/>
      <point x="452" y="453"/>
      <point x="473" y="471"/>
      <point x="480" y="520" type="curve" smooth="yes"/>
      <point x="491" y="593" type="line"/>
      <point x="411" y="593" type="line"/>
      <point x="402" y="530" type="line" smooth="yes"/>
      <point x="398" y="504"/>
      <point x="385" y="498"/>
      <point x="355" y="490" type="curve" smooth="yes"/>
      <point x="339" y="486" type="line"/>
      <point x="343" y="496"/>
      <point x="346" y="507"/>
      <point x="346" y="518" type="curve" smooth="yes"/>
      <point x="346" y="568"/>
      <point x="307" y="604"/>
      <point x="247" y="604" type="curve" smooth="yes"/>
      <point x="186" y="604"/>
      <point x="147" y="568"/>
      <point x="147" y="511" type="curve" smooth="yes"/>
      <point x="147" y="480"/>
      <point x="162" y="455"/>
      <point x="187" y="441" type="curve"/>
      <point x="116" y="412"/>
      <point x="56" y="358"/>
      <point x="56" y="240" type="curve" smooth="yes"/>
      <point x="56" y="85"/>
      <point x="148" y="0"/>
    </contour>
    <contour>
      <point x="247" y="463" type="curve" smooth="yes"/>
      <point x="218" y="463"/>
      <point x="201" y="478"/>
      <point x="201" y="504" type="curve" smooth="yes"/>
      <point x="201" y="515" type="line" smooth="yes"/>
      <point x="201" y="542"/>
      <point x="218" y="557"/>
      <point x="247" y="557" type="curve" smooth="yes"/>
      <point x="273" y="557"/>
      <point x="292" y="542"/>
      <point x="292" y="515" type="curve" smooth="yes"/>
      <point x="292" y="504" type="line" smooth="yes"/>
      <point x="292" y="478"/>
      <point x="273" y="463"/>
    </contour>
  </outline>
</glyph>
<glyph name="six-thai" format="1">
  <advance width="572"/>
  <unicode hex="0E56"/>
  <outline>
    <contour>
      <point x="276" y="-12" type="curve" smooth="yes" name="hr00"/>
      <point x="420" y="-12"/>
      <point x="516" y="88"/>
      <point x="516" y="251" type="curve" smooth="yes"/>
      <point x="516" y="411"/>
      <point x="432" y="508"/>
      <point x="306" y="508" type="curve" smooth="yes"/>
      <point x="227" y="508"/>
      <point x="163" y="468"/>
      <point x="138" y="397" type="curve"/>
      <point x="133" y="397" type="line"/>
      <point x="105" y="593" type="line"/>
      <point x="24" y="593" type="line"/>
      <point x="69" y="333" type="line"/>
      <point x="138" y="326" type="line"/>
      <point x="160" y="392"/>
      <point x="201" y="439"/>
      <point x="289" y="439" type="curve" smooth="yes"/>
      <point x="374" y="439"/>
      <point x="430" y="386"/>
      <point x="430" y="288" type="curve" smooth="yes"/>
      <point x="430" y="215" type="line" smooth="yes"/>
      <point x="430" y="112"/>
      <point x="369" y="57"/>
      <point x="276" y="57" type="curve" smooth="yes"/>
      <point x="207" y="57"/>
      <point x="162" y="91"/>
      <point x="133" y="149" type="curve"/>
      <point x="74" y="112" type="line"/>
      <point x="109" y="36"/>
      <point x="175" y="-12"/>
    </contour>
  </outline>
</glyph>
<glyph name="seven-thai" format="1">
  <advance width="841"/>
  <unicode hex="0E57"/>
  <outline>
    <contour>
      <point x="264" y="-12" type="curve" smooth="yes" name="hr00"/>
      <point x="286" y="-12"/>
      <point x="311" y="-11"/>
      <point x="337" y="-6" type="curve"/>
      <point x="327" y="61" type="line"/>
      <point x="311" y="58"/>
      <point x="293" y="57"/>
      <point x="279" y="57" type="curve" smooth="yes"/>
      <point x="187" y="57"/>
      <point x="146" y="124"/>
      <point x="146" y="234" type="curve" smooth="yes"/>
      <point x="146" y="282" type="line" smooth="yes"/>
      <point x="146" y="385"/>
      <point x="163" y="439"/>
      <point x="215" y="439" type="curve" smooth="yes"/>
      <point x="262" y="439"/>
      <point x="274" y="397"/>
      <point x="277" y="356" type="curve"/>
      <point x="330" y="356" type="line"/>
      <point x="334" y="397"/>
      <point x="348" y="439"/>
      <point x="399" y="439" type="curve" smooth="yes"/>
      <point x="444" y="439"/>
      <point x="461" y="403"/>
      <point x="461" y="355" type="curve" smooth="yes"/>
      <point x="461" y="0" type="line"/>
      <point x="578" y="0" type="line" smooth="yes"/>
      <point x="694" y="0"/>
      <point x="761" y="74"/>
      <point x="761" y="190" type="curve" smooth="yes"/>
      <point x="761" y="593" type="line"/>
      <point x="681" y="593" type="line"/>
      <point x="681" y="201" type="line" smooth="yes"/>
      <point x="681" y="112"/>
      <point x="643" y="60"/>
      <point x="578" y="60" type="curve" smooth="yes"/>
      <point x="541" y="60" type="line"/>
      <point x="541" y="356" type="line" smooth="yes"/>
      <point x="541" y="452"/>
      <point x="499" y="508"/>
      <point x="418" y="508" type="curve" smooth="yes"/>
      <point x="355" y="508"/>
      <point x="320" y="481"/>
      <point x="308" y="427" type="curve"/>
      <point x="303" y="427" type="line"/>
      <point x="292" y="481"/>
      <point x="255" y="508"/>
      <point x="203" y="508" type="curve" smooth="yes"/>
      <point x="107" y="508"/>
      <point x="60" y="420"/>
      <point x="60" y="256" type="curve" smooth="yes"/>
      <point x="60" y="94"/>
      <point x="132" y="-12"/>
    </contour>
  </outline>
</glyph>
<glyph name="eight-thai" format="1">
  <advance width="602"/>
  <unicode hex="0E58"/>
  <outline>
    <contour>
      <point x="198" y="-12" type="curve" smooth="yes" name="hr00"/>
      <point x="260" y="-12"/>
      <point x="289" y="17"/>
      <point x="299" y="72" type="curve"/>
      <point x="304" y="72" type="line"/>
      <point x="313" y="17"/>
      <point x="355" y="-12"/>
      <point x="419" y="-12" type="curve" smooth="yes"/>
      <point x="502" y="-12"/>
      <point x="559" y="40"/>
      <point x="559" y="155" type="curve" smooth="yes"/>
      <point x="559" y="255"/>
      <point x="505" y="301"/>
      <point x="435" y="301" type="curve" smooth="yes"/>
      <point x="423" y="301"/>
      <point x="406" y="299"/>
      <point x="387" y="295" type="curve"/>
      <point x="395" y="234" type="line"/>
      <point x="411" y="237"/>
      <point x="418" y="237"/>
      <point x="424" y="237" type="curve" smooth="yes"/>
      <point x="455" y="237"/>
      <point x="477" y="219"/>
      <point x="477" y="175" type="curve" smooth="yes"/>
      <point x="477" y="132" type="line" smooth="yes"/>
      <point x="477" y="84"/>
      <point x="456" y="57"/>
      <point x="409" y="57" type="curve" smooth="yes"/>
      <point x="359" y="57"/>
      <point x="337" y="99"/>
      <point x="337" y="161" type="curve" smooth="yes"/>
      <point x="337" y="185" type="line"/>
      <point x="271" y="185" type="line"/>
      <point x="271" y="161" type="line" smooth="yes"/>
      <point x="271" y="99"/>
      <point x="256" y="58"/>
      <point x="212" y="58" type="curve" smooth="yes"/>
      <point x="169" y="58"/>
      <point x="140" y="79"/>
      <point x="140" y="182" type="curve" smooth="yes"/>
      <point x="140" y="238" type="line" smooth="yes"/>
      <point x="140" y="345"/>
      <point x="186" y="392"/>
      <point x="262" y="404" type="curve" smooth="yes"/>
      <point x="427" y="431" type="line" smooth="yes"/>
      <point x="511" y="444"/>
      <point x="531" y="469"/>
      <point x="540" y="520" type="curve" smooth="yes"/>
      <point x="552" y="593" type="line"/>
      <point x="471" y="593" type="line"/>
      <point x="462" y="530" type="line" smooth="yes"/>
      <point x="459" y="503"/>
      <point x="444" y="498"/>
      <point x="414" y="492" type="curve" smooth="yes"/>
      <point x="238" y="462" type="line" smooth="yes"/>
      <point x="137" y="444"/>
      <point x="54" y="383"/>
      <point x="54" y="214" type="curve" smooth="yes"/>
      <point x="54" y="41"/>
      <point x="113" y="-12"/>
    </contour>
  </outline>
</glyph>
<glyph name="nine-thai" format="1">
  <advance width="655"/>
  <unicode hex="0E59"/>
  <outline>
    <contour>
      <point x="236" y="-10" type="curve" smooth="yes" name="hr00"/>
      <point x="253" y="-10"/>
      <point x="271" y="-10"/>
      <point x="284" y="-7" type="curve"/>
      <point x="278" y="59" type="line"/>
      <point x="263" y="57"/>
      <point x="255" y="57"/>
      <point x="247" y="57" type="curve" smooth="yes"/>
      <point x="178" y="57"/>
      <point x="146" y="124"/>
      <point x="146" y="214" type="curve" smooth="yes"/>
      <point x="146" y="311" type="line" smooth="yes"/>
      <point x="146" y="392"/>
      <point x="174" y="439"/>
      <point x="226" y="439" type="curve" smooth="yes"/>
      <point x="276" y="439"/>
      <point x="301" y="398"/>
      <point x="319" y="337" type="curve" smooth="yes"/>
      <point x="419" y="0" type="line"/>
      <point x="508" y="0" type="line"/>
      <point x="418" y="298" type="line" smooth="yes"/>
      <point x="411" y="321"/>
      <point x="408" y="341"/>
      <point x="408" y="358" type="curve" smooth="yes"/>
      <point x="408" y="414"/>
      <point x="441" y="439"/>
      <point x="475" y="439" type="curve" smooth="yes"/>
      <point x="526" y="439"/>
      <point x="563" y="399"/>
      <point x="563" y="330" type="curve"/>
      <point x="632" y="337" type="line"/>
      <point x="674" y="593" type="line"/>
      <point x="594" y="593" type="line"/>
      <point x="567" y="397" type="line"/>
      <point x="564" y="397" type="line"/>
      <point x="562" y="459"/>
      <point x="534" y="508"/>
      <point x="468" y="508" type="curve" smooth="yes"/>
      <point x="419" y="508"/>
      <point x="379" y="473"/>
      <point x="379" y="410" type="curve" smooth="yes"/>
      <point x="379" y="401"/>
      <point x="379" y="394"/>
      <point x="381" y="383" type="curve"/>
      <point x="376" y="382" type="line"/>
      <point x="355" y="452"/>
      <point x="306" y="508"/>
      <point x="223" y="508" type="curve" smooth="yes"/>
      <point x="120" y="508"/>
      <point x="60" y="421"/>
      <point x="60" y="262" type="curve" smooth="yes"/>
      <point x="60" y="82"/>
      <point x="121" y="-10"/>
    </contour>
  </outline>
</glyph>
<glyph name="khomut-thai" format="1">
  <advance width="1410"/>
  <unicode hex="0E5B"/>
  <outline>
    <contour>
      <point x="314" y="-12" type="curve" smooth="yes" name="hr00"/>
      <point x="480" y="-12"/>
      <point x="597" y="101"/>
      <point x="638" y="384" type="curve"/>
      <point x="640" y="384" type="line"/>
      <point x="737" y="75" type="line"/>
      <point x="804" y="75" type="line"/>
      <point x="889" y="344" type="line"/>
      <point x="891" y="344" type="line"/>
      <point x="967" y="107" type="line"/>
      <point x="1033" y="107" type="line"/>
      <point x="1105" y="334" type="line"/>
      <point x="1107" y="334" type="line"/>
      <point x="1145" y="240"/>
      <point x="1192" y="204"/>
      <point x="1283" y="204" type="curve" smooth="yes"/>
      <point x="1351" y="204" type="line"/>
      <point x="1351" y="273" type="line"/>
      <point x="1285" y="273" type="line" smooth="yes"/>
      <point x="1193" y="273"/>
      <point x="1159" y="327"/>
      <point x="1136" y="425" type="curve"/>
      <point x="1070" y="425" type="line"/>
      <point x="1002" y="212" type="line"/>
      <point x="1000" y="212" type="line"/>
      <point x="925" y="450" type="line"/>
      <point x="858" y="450" type="line"/>
      <point x="773" y="180" type="line"/>
      <point x="771" y="180" type="line"/>
      <point x="672" y="490" type="line"/>
      <point x="588" y="490" type="line"/>
      <point x="557" y="173"/>
      <point x="469" y="57"/>
      <point x="317" y="57" type="curve" smooth="yes"/>
      <point x="211" y="57"/>
      <point x="145" y="119"/>
      <point x="145" y="235" type="curve" smooth="yes"/>
      <point x="145" y="312" type="line" smooth="yes"/>
      <point x="145" y="427"/>
      <point x="212" y="489"/>
      <point x="304" y="489" type="curve" smooth="yes"/>
      <point x="364" y="489"/>
      <point x="401" y="467"/>
      <point x="429" y="439" type="curve"/>
      <point x="473" y="493" type="line"/>
      <point x="441" y="531"/>
      <point x="384" y="558"/>
      <point x="300" y="558" type="curve" smooth="yes"/>
      <point x="153" y="558"/>
      <point x="59" y="460"/>
      <point x="59" y="273" type="curve" smooth="yes"/>
      <point x="59" y="85"/>
      <point x="155" y="-12"/>
    </contour>
  </outline>
</glyph>
<glyph name="arrowup" format="1">
  <advance width="820"/>
  <unicode hex="2191"/>
  <outline>
    <contour>
      <point x="410" y="710" type="line" name="hr00"/>
      <point x="203" y="503" type="line"/>
      <point x="251" y="454" type="line"/>
      <point x="337" y="541" type="line"/>
      <point x="379" y="591" type="line"/>
      <point x="382" y="590" type="line"/>
      <point x="376" y="493" type="line"/>
      <point x="376" y="0" type="line"/>
      <point x="444" y="0" type="line"/>
      <point x="444" y="493" type="line"/>
      <point x="438" y="590" type="line"/>
      <point x="441" y="591" type="line"/>
      <point x="483" y="541" type="line"/>
      <point x="569" y="454" type="line"/>
      <point x="617" y="503" type="line"/>
    </contour>
  </outline>
</glyph>
<glyph name="arrowdownleft" format="1">
  <advance width="820"/>
  <unicode hex="2199"/>
  <outline>
    <contour>
      <point x="170" y="101" type="line" name="hr00"/>
      <point x="463" y="101" type="line"/>
      <point x="463" y="169" type="line"/>
      <point x="341" y="169" type="line"/>
      <point x="276" y="163" type="line"/>
      <point x="275" y="166" type="line"/>
      <point x="347" y="230" type="line"/>
      <point x="696" y="579" type="line"/>
      <point x="648" y="627" type="line"/>
      <point x="299" y="278" type="line"/>
      <point x="235" y="206" type="line"/>
      <point x="232" y="207" type="line"/>
      <point x="238" y="272" type="line"/>
      <point x="238" y="394" type="line"/>
      <point x="170" y="394" type="line"/>
    </contour>
  </outline>
</glyph>
<glyph name="dottedCircle" format="1">
  <advance width="682"/>
  <unicode hex="25CC"/>
  <outline>
    <contour>
      <point x="104" y="119" type="curve" smooth="yes" name="hr00"/>
      <point x="121" y="119"/>
      <point x="136" y="133"/>
      <point x="136" y="151" type="curve" smooth="yes"/>
      <point x="136" y="169"/>
      <point x="121" y="183"/>
      <point x="104" y="183" type="curve" smooth="yes"/>
      <point x="87" y="183"/>
      <point x="72" y="169"/>
      <point x="72" y="151" type="curve" smooth="yes"/>
      <point x="72" y="133"/>
      <point x="87" y="119"/>
    </contour>
    <contour>
      <point x="62" y="241" type="curve" smooth="yes"/>
      <point x="79" y="241"/>
      <point x="94" y="255"/>
      <point x="94" y="273" type="curve"/>
      <point x="94" y="291"/>
      <point x="79" y="305"/>
      <point x="62" y="305" type="curve" smooth="yes"/>
      <point x="45" y="305"/>
      <point x="30" y="291"/>
      <point x="30" y="273" type="curve"/>
      <point x="30" y="255"/>
      <point x="45" y="241"/>
    </contour>
    <contour>
      <point x="104" y="363" type="curve" smooth="yes"/>
      <point x="121" y="363"/>
      <point x="136" y="377"/>
      <point x="136" y="395" type="curve" smooth="yes"/>
      <point x="136" y="413"/>
      <point x="121" y="427"/>
      <point x="104" y="427" type="curve" smooth="yes"/>
      <point x="87" y="427"/>
      <point x="72" y="413"/>
      <point x="72" y="395" type="curve" smooth="yes"/>
      <point x="72" y="377"/>
      <point x="87" y="363"/>
    </contour>
    <contour>
      <point x="202" y="24" type="curve" smooth="yes"/>
      <point x="219" y="24"/>
      <point x="234" y="38"/>
      <point x="234" y="56" type="curve" smooth="yes"/>
      <point x="234" y="74"/>
      <point x="219" y="88"/>
      <point x="202" y="88" type="curve" smooth="yes"/>
      <point x="185" y="88"/>
      <point x="170" y="74"/>
      <point x="170" y="56" type="curve" smooth="yes"/>
      <point x="170" y="38"/>
      <point x="185" y="24"/>
    </contour>
    <contour>
      <point x="202" y="458" type="curve" smooth="yes"/>
      <point x="219" y="458"/>
      <point x="234" y="472"/>
      <point x="234" y="490" type="curve" smooth="yes"/>
      <point x="234" y="508"/>
      <point x="219" y="522"/>
      <point x="202" y="522" type="curve" smooth="yes"/>
      <point x="185" y="522"/>
      <point x="170" y="508"/>
      <point x="170" y="490" type="curve" smooth="yes"/>
      <point x="170" y="472"/>
      <point x="185" y="458"/>
    </contour>
    <contour>
      <point x="341" y="-10" type="curve" smooth="yes"/>
      <point x="358" y="-10"/>
      <point x="373" y="4"/>
      <point x="373" y="22" type="curve" smooth="yes"/>
      <point x="373" y="40"/>
      <point x="358" y="54"/>
      <point x="341" y="54" type="curve" smooth="yes"/>
      <point x="324" y="54"/>
      <point x="309" y="40"/>
      <point x="309" y="22" type="curve" smooth="yes"/>
      <point x="309" y="4"/>
      <point x="324" y="-10"/>
    </contour>
    <contour>
      <point x="341" y="492" type="curve" smooth="yes"/>
      <point x="358" y="492"/>
      <point x="373" y="506"/>
      <point x="373" y="524" type="curve" smooth="yes"/>
      <point x="373" y="542"/>
      <point x="358" y="556"/>
      <point x="341" y="556" type="curve" smooth="yes"/>
      <point x="324" y="556"/>
      <point x="309" y="542"/>
      <point x="309" y="524" type="curve" smooth="yes"/>
      <point x="309" y="506"/>
      <point x="324" y="492"/>
    </contour>
    <contour>
      <point x="480" y="24" type="curve" smooth="yes"/>
      <point x="497" y="24"/>
      <point x="512" y="38"/>
      <point x="512" y="56" type="curve" smooth="yes"/>
      <point x="512" y="74"/>
      <point x="497" y="88"/>
      <point x="480" y="88" type="curve" smooth="yes"/>
      <point x="463" y="88"/>
      <point x="448" y="74"/>
      <point x="448" y="56" type="curve" smooth="yes"/>
      <point x="448" y="38"/>
      <point x="463" y="24"/>
    </contour>
    <contour>
      <point x="480" y="458" type="curve" smooth="yes"/>
      <point x="497" y="458"/>
      <point x="512" y="472"/>
      <point x="512" y="490" type="curve" smooth="yes"/>
      <point x="512" y="508"/>
      <point x="497" y="522"/>
      <point x="480" y="522" type="curve" smooth="yes"/>
      <point x="463" y="522"/>
      <point x="448" y="508"/>
      <point x="448" y="490" type="curve" smooth="yes"/>
      <point x="448" y="472"/>
      <point x="463" y="458"/>
    </contour>
    <contour>
      <point x="578" y="119" type="curve" smooth="yes"/>
      <point x="595" y="119"/>
      <point x="610" y="133"/>
      <point x="610" y="151" type="curve" smooth="yes"/>
      <point x="610" y="169"/>
      <point x="595" y="183"/>
      <point x="578" y="183" type="curve" smooth="yes"/>
      <point x="561" y="183"/>
      <point x="546" y="169"/>
      <point x="546" y="151" type="curve" smooth="yes"/>
      <point x="546" y="133"/>
      <point x="561" y="119"/>
    </contour>
    <contour>
      <point x="620" y="241" type="curve" smooth="yes"/>
      <point x="637" y="241"/>
      <point x="652" y="255"/>
      <point x="652" y="273" type="curve"/>
      <point x="652" y="291"/>
      <point x="637" y="305"/>
      <point x="620" y="305" type="curve" smooth="yes"/>
      <point x="603" y="305"/>
      <point x="588" y="291"/>
      <point x="588" y="273" type="curve"/>
      <point x="588" y="255"/>
      <point x="603" y="241"/>
    </contour>
    <contour>
      <point x="578" y="363" type="curve" smooth="yes"/>
      <point x="595" y="363"/>
      <point x="610" y="377"/>
      <point x="610" y="395" type="curve" smooth="yes"/>
      <point x="610" y="413"/>
      <point x="595" y="427"/>
      <point x="578" y="427" type="curve" smooth="yes"/>
      <point x="561" y="427"/>
      <point x="546" y="413"/>
      <point x="546" y="395" type="curve" smooth="yes"/>
      <point x="546" y="377"/>
      <point x="561" y="363"/>
    </contour>
    <contour>
      <point x="341.0" y="0.0" type="move" name="bottom"/>
    </contour>
    <contour>
      <point x="620.0" y="0.0" type="move" name="bottomright"/>
    </contour>
    <contour>
      <point x="341.0" y="600.0" type="move" name="top"/>
    </contour>
    <contour>
      <point x="620.0" y="600.0" type="move" name="topright"/>
    </contour>
  </outline>
</glyph>
<glyph name="u2638" format="1">
  <advance width="894"/>
  <unicode hex="2638"/>
  <outline>
    <contour>
      <point x="414" y="-50" type="line" name="hr00"/>
      <point x="480" y="-50" type="line"/>
      <point x="479" y="3" type="line"/>
      <point x="555" y="8"/>
      <point x="617" y="32"/>
      <point x="666" y="68" type="curve"/>
      <point x="703" y="30" type="line"/>
      <point x="752" y="79" type="line"/>
      <point x="716" y="114" type="line"/>
      <point x="759" y="165"/>
      <point x="784" y="230"/>
      <point x="790" y="301" type="curve"/>
      <point x="844" y="300" type="line"/>
      <point x="844" y="372" type="line"/>
      <point x="790" y="371" type="line"/>
      <point x="784" y="442"/>
      <point x="759" y="507"/>
      <point x="716" y="558" type="curve"/>
      <point x="752" y="593" type="line"/>
      <point x="703" y="642" type="line"/>
      <point x="666" y="604" type="line"/>
      <point x="617" y="640"/>
      <point x="555" y="664"/>
      <point x="479" y="669" type="curve"/>
      <point x="480" y="722" type="line"/>
      <point x="414" y="722" type="line"/>
      <point x="415" y="669" type="line"/>
      <point x="339" y="664"/>
      <point x="277" y="640"/>
      <point x="228" y="604" type="curve"/>
      <point x="191" y="642" type="line"/>
      <point x="142" y="593" type="line"/>
      <point x="178" y="558" type="line"/>
      <point x="135" y="507"/>
      <point x="110" y="442"/>
      <point x="104" y="371" type="curve"/>
      <point x="50" y="372" type="line"/>
      <point x="50" y="300" type="line"/>
      <point x="104" y="301" type="line"/>
      <point x="110" y="230"/>
      <point x="135" y="165"/>
      <point x="178" y="114" type="curve"/>
      <point x="142" y="79" type="line"/>
      <point x="191" y="30" type="line"/>
      <point x="228" y="68" type="line"/>
      <point x="277" y="32"/>
      <point x="339" y="8"/>
      <point x="415" y="3" type="curve"/>
    </contour>
    <contour>
      <point x="226" y="161" type="line"/>
      <point x="196" y="201"/>
      <point x="177" y="249"/>
      <point x="172" y="302" type="curve"/>
      <point x="312" y="304" type="line"/>
      <point x="316" y="289"/>
      <point x="322" y="275"/>
      <point x="330" y="262" type="curve"/>
    </contour>
    <contour>
      <point x="312" y="368" type="curve"/>
      <point x="172" y="370" type="line"/>
      <point x="177" y="423"/>
      <point x="196" y="471"/>
      <point x="226" y="511" type="curve"/>
      <point x="330" y="410" type="line"/>
      <point x="322" y="397"/>
      <point x="316" y="383"/>
    </contour>
    <contour>
      <point x="415" y="66" type="line"/>
      <point x="358" y="71"/>
      <point x="311" y="89"/>
      <point x="274" y="116" type="curve"/>
      <point x="376" y="221" type="line"/>
      <point x="388" y="215"/>
      <point x="402" y="210"/>
      <point x="417" y="207" type="curve"/>
    </contour>
    <contour>
      <point x="376" y="451" type="curve"/>
      <point x="274" y="556" type="line"/>
      <point x="311" y="583"/>
      <point x="358" y="601"/>
      <point x="415" y="606" type="curve"/>
      <point x="417" y="465" type="line"/>
      <point x="402" y="462"/>
      <point x="388" y="457"/>
    </contour>
    <contour>
      <point x="447" y="266" type="curve" smooth="yes"/>
      <point x="399" y="266"/>
      <point x="375" y="298"/>
      <point x="375" y="336" type="curve" smooth="yes"/>
      <point x="375" y="374"/>
      <point x="399" y="406"/>
      <point x="447" y="406" type="curve" smooth="yes"/>
      <point x="495" y="406"/>
      <point x="519" y="374"/>
      <point x="519" y="336" type="curve" smooth="yes"/>
      <point x="519" y="298"/>
      <point x="495" y="266"/>
    </contour>
    <contour>
      <point x="479" y="66" type="curve"/>
      <point x="477" y="207" type="line"/>
      <point x="492" y="210"/>
      <point x="506" y="215"/>
      <point x="518" y="221" type="curve"/>
      <point x="620" y="116" type="line"/>
      <point x="583" y="89"/>
      <point x="536" y="71"/>
    </contour>
    <contour>
      <point x="518" y="451" type="line"/>
      <point x="506" y="457"/>
      <point x="492" y="462"/>
      <point x="477" y="465" type="curve"/>
      <point x="479" y="606" type="line"/>
      <point x="536" y="601"/>
      <point x="583" y="583"/>
      <point x="620" y="556" type="curve"/>
    </contour>
    <contour>
      <point x="668" y="161" type="curve"/>
      <point x="564" y="262" type="line"/>
      <point x="572" y="275"/>
      <point x="578" y="289"/>
      <point x="582" y="304" type="curve"/>
      <point x="722" y="302" type="line"/>
      <point x="717" y="249"/>
      <point x="698" y="201"/>
    </contour>
    <contour>
      <point x="582" y="368" type="line"/>
      <point x="578" y="383"/>
      <point x="572" y="397"/>
      <point x="564" y="410" type="curve"/>
      <point x="668" y="511" type="line"/>
      <point x="698" y="471"/>
      <point x="717" y="423"/>
      <point x="722" y="370" type="curve"/>
    </contour>
  </outline>
</glyph>
<glyph name="angkhankhu_wisanchani-thai" format="1">
  <advance width="735"/>
  <unicode hex="EC03"/>
  <outline>
    <contour>
      <point x="354" y="0" type="line" name="hr00"/>
      <point x="434" y="0" type="line"/>
      <point x="434" y="180" type="line"/>
      <point x="557" y="180" type="line"/>
      <point x="557" y="0" type="line"/>
      <point x="637" y="0" type="line"/>
      <point x="637" y="180" type="line"/>
      <point x="709" y="180" type="line"/>
      <point x="709" y="245" type="line"/>
      <point x="637" y="245" type="line"/>
      <point x="637" y="546" type="line"/>
      <point x="557" y="546" type="line"/>
      <point x="557" y="245" type="line"/>
      <point x="434" y="245" type="line"/>
      <point x="434" y="546" type="line"/>
      <point x="354" y="546" type="line"/>
      <point x="354" y="514" type="line" smooth="yes"/>
      <point x="354" y="464"/>
      <point x="309" y="433"/>
      <point x="241" y="433" type="curve" smooth="yes"/>
      <point x="218" y="433" type="line" smooth="yes"/>
      <point x="161" y="433"/>
      <point x="121" y="454"/>
      <point x="121" y="508" type="curve" smooth="yes"/>
      <point x="121" y="546" type="line"/>
      <point x="41" y="546" type="line"/>
      <point x="41" y="498" type="line" smooth="yes"/>
      <point x="41" y="407"/>
      <point x="114" y="365"/>
      <point x="199" y="365" type="curve" smooth="yes"/>
      <point x="283" y="365"/>
      <point x="329" y="403"/>
      <point x="350" y="451" type="curve"/>
      <point x="354" y="451" type="line"/>
      <point x="354" y="245" type="line"/>
      <point x="243" y="245" type="line"/>
      <point x="243" y="300" type="line"/>
      <point x="163" y="300" type="line"/>
      <point x="163" y="255" type="line" smooth="yes"/>
      <point x="163" y="208"/>
      <point x="189" y="180"/>
      <point x="249" y="180" type="curve" smooth="yes"/>
      <point x="354" y="180" type="line"/>
    </contour>
  </outline>
</glyph>
<glyph name="pikKaa-thai" format="1">
  <advance width="563"/>
  <unicode hex="EC05"/>
  <outline>
    <contour>
      <point x="174" y="-513" type="line" name="hr00"/>
      <point x="345" y="-342" type="line" smooth="yes"/>
      <point x="358" y="-329"/>
      <point x="363" y="-315"/>
      <point x="363" y="-295" type="curve" smooth="yes"/>
      <point x="363" y="983" type="line" smooth="yes"/>
      <point x="363" y="1034"/>
      <point x="334" y="1067"/>
      <point x="278" y="1067" type="curve" smooth="yes"/>
      <point x="130" y="1067" type="line"/>
      <point x="130" y="998" type="line"/>
      <point x="283" y="998" type="line"/>
      <point x="283" y="-294" type="line"/>
      <point x="122" y="-452" type="line"/>
    </contour>
  </outline>
</glyph>
<glyph name="tinKhru-thai" format="1">
  <advance width="1659"/>
  <unicode hex="EC06"/>
  <outline>
    <contour>
      <point x="790" y="-533" type="line" name="hr00"/>
      <point x="870" y="-533" type="line"/>
      <point x="870" y="231" type="line"/>
      <point x="1629" y="231" type="line"/>
      <point x="1629" y="304" type="line"/>
      <point x="870" y="304" type="line"/>
      <point x="870" y="1067" type="line"/>
      <point x="790" y="1067" type="line"/>
      <point x="790" y="304" type="line"/>
      <point x="30" y="304" type="line"/>
      <point x="30" y="231" type="line"/>
      <point x="790" y="231" type="line"/>
    </contour>
  </outline>
</glyph>
<glyph name="fonthong-thai" format="1">
  <advance width="0"/>
  <unicode hex="EC07"/>
  <outline>
    <contour>
      <point x="-108" y="653" type="line" name="hr00"/>
      <point x="-30" y="653" type="line"/>
      <point x="-30" y="838" type="line"/>
      <point x="-108" y="838" type="line"/>
    </contour>
    <contour>
      <point x="-69.0" y="558.0" type="move" name="_top"/>
    </contour>
    <contour>
      <point x="-30.0" y="845.0" type="move" name="topright"/>
    </contour>
  </outline>
</glyph>
<glyph name="fannu-thai" format="1">
  <advance width="0"/>
  <unicode hex="EC08"/>
  <outline>
    <contour>
      <point x="-270" y="653" type="line" name="hr00"/>
      <point x="-192" y="653" type="line"/>
      <point x="-192" y="838" type="line"/>
      <point x="-270" y="838" type="line"/>
    </contour>
    <contour>
      <point x="-108" y="653" type="line"/>
      <point x="-30" y="653" type="line"/>
      <point x="-30" y="838" type="line"/>
      <point x="-108" y="838" type="line"/>
    </contour>
    <contour>
      <point x="-150.0" y="558.0" type="move" name="_top"/>
    </contour>
  </outline>
</glyph>
<glyph name="fongdan-thai" format="1">
  <advance width="640"/>
  <unicode hex="EC0A"/>
  <outline>
    <contour>
      <point x="320" y="59" type="curve" smooth="yes" name="hr00"/>
      <point x="214" y="59"/>
      <point x="145" y="119"/>
      <point x="145" y="230" type="curve" smooth="yes"/>
      <point x="145" y="316" type="line" smooth="yes"/>
      <point x="145" y="427"/>
      <point x="214" y="487"/>
      <point x="320" y="487" type="curve" smooth="yes"/>
      <point x="426" y="487"/>
      <point x="495" y="427"/>
      <point x="495" y="316" type="curve" smooth="yes"/>
      <point x="495" y="230" type="line" smooth="yes"/>
      <point x="495" y="119"/>
      <point x="426" y="59"/>
    </contour>
    <contour>
      <point x="200" y="653" type="line"/>
      <point x="278" y="653" type="line"/>
      <point x="278" y="838" type="line"/>
      <point x="200" y="838" type="line"/>
    </contour>
    <contour>
      <point x="320" y="-12" type="curve" smooth="yes"/>
      <point x="477" y="-12"/>
      <point x="581" y="97"/>
      <point x="581" y="273" type="curve" smooth="yes"/>
      <point x="581" y="449"/>
      <point x="477" y="558"/>
      <point x="320" y="558" type="curve" smooth="yes"/>
      <point x="163" y="558"/>
      <point x="59" y="449"/>
      <point x="59" y="273" type="curve" smooth="yes"/>
      <point x="59" y="97"/>
      <point x="163" y="-12"/>
    </contour>
    <contour>
      <point x="362" y="653" type="line"/>
      <point x="440" y="653" type="line"/>
      <point x="440" y="838" type="line"/>
      <point x="362" y="838" type="line"/>
    </contour>
  </outline>
</glyph>
<glyph name="unalome-thai" format="1">
  <advance width="753"/>
  <unicode hex="EC0B"/>
  <outline>
    <contour>
      <point x="381" y="-11" type="curve" smooth="yes" name="hr00"/>
      <point x="588" y="-11"/>
      <point x="687" y="80"/>
      <point x="687" y="226" type="curve" smooth="yes"/>
      <point x="687" y="307"/>
      <point x="652" y="358"/>
      <point x="602" y="392" type="curve"/>
      <point x="553" y="334" type="line"/>
      <point x="586" y="315"/>
      <point x="607" y="284"/>
      <point x="607" y="238" type="curve" smooth="yes"/>
      <point x="607" y="212" type="line" smooth="yes"/>
      <point x="607" y="109"/>
      <point x="539" y="54"/>
      <point x="381" y="54" type="curve" smooth="yes"/>
      <point x="230" y="54"/>
      <point x="152" y="93"/>
      <point x="152" y="211" type="curve" smooth="yes"/>
      <point x="152" y="283" type="line" smooth="yes"/>
      <point x="152" y="398"/>
      <point x="292" y="470"/>
      <point x="592" y="475" type="curve"/>
      <point x="592" y="554" type="line"/>
      <point x="257" y="646" type="line"/>
      <point x="257" y="648" type="line"/>
      <point x="546" y="729" type="line"/>
      <point x="546" y="792" type="line"/>
      <point x="309" y="858" type="line"/>
      <point x="309" y="860" type="line"/>
      <point x="403" y="879"/>
      <point x="456" y="913"/>
      <point x="456" y="1007" type="curve" smooth="yes"/>
      <point x="456" y="1067" type="line"/>
      <point x="386" y="1067" type="line"/>
      <point x="386" y="1012" type="line" smooth="yes"/>
      <point x="386" y="931"/>
      <point x="343" y="905"/>
      <point x="222" y="880" type="curve"/>
      <point x="222" y="826" type="line"/>
      <point x="459" y="761" type="line"/>
      <point x="459" y="759" type="line"/>
      <point x="170" y="680" type="line"/>
      <point x="170" y="615" type="line"/>
      <point x="488" y="527" type="line"/>
      <point x="488" y="524" type="line"/>
      <point x="144" y="498"/>
      <point x="66" y="385"/>
      <point x="66" y="247" type="curve" smooth="yes"/>
      <point x="66" y="66"/>
      <point x="181" y="-11"/>
    </contour>
  </outline>
</glyph>
<glyph name="doChada-thai.short" format="1">
  <advance width="609"/>
  <outline>
    <contour>
      <point x="194" y="-132" type="line" name="hr00"/>
      <point x="221" y="-84"/>
      <point x="269" y="-43"/>
      <point x="334" y="-43" type="curve" smooth="yes"/>
      <point x="402" y="-43"/>
      <point x="445" y="-84"/>
      <point x="466" y="-132" type="curve"/>
      <point x="529" y="-132" type="line"/>
      <point x="529" y="341" type="line" smooth="yes"/>
      <point x="529" y="474"/>
      <point x="445" y="558"/>
      <point x="293" y="558" type="curve" smooth="yes"/>
      <point x="161" y="558"/>
      <point x="61" y="470"/>
      <point x="53" y="348" type="curve"/>
      <point x="139" y="312" type="line"/>
      <point x="139" y="70" type="line"/>
      <point x="75" y="70" type="line"/>
      <point x="75" y="0" type="line"/>
      <point x="134" y="0" type="line" smooth="yes"/>
      <point x="190" y="0"/>
      <point x="219" y="33"/>
      <point x="219" y="84" type="curve" smooth="yes"/>
      <point x="219" y="309" type="line" smooth="yes"/>
      <point x="219" y="338"/>
      <point x="207" y="352"/>
      <point x="178" y="364" type="curve" smooth="yes"/>
      <point x="128" y="384" type="line"/>
      <point x="146" y="449"/>
      <point x="214" y="489"/>
      <point x="295" y="489" type="curve" smooth="yes"/>
      <point x="387" y="489"/>
      <point x="449" y="434"/>
      <point x="449" y="331" type="curve" smooth="yes"/>
      <point x="449" y="-60" type="line"/>
      <point x="444" y="-60" type="line"/>
      <point x="424" y="-15"/>
      <point x="374" y="13"/>
      <point x="317" y="13" type="curve" smooth="yes"/>
      <point x="233" y="13"/>
      <point x="179" y="-28"/>
      <point x="138" y="-88" type="curve"/>
    </contour>
    <contour>
      <point x="529.0" y="-65.0" type="move" name="bottomright"/>
    </contour>
    <contour>
      <point x="295.0" y="558.0" type="move" name="top"/>
    </contour>
    <contour>
      <point x="529.0" y="600.0" type="move" name="topright"/>
    </contour>
  </outline>
</glyph>
<glyph name="eight-thai.sups" format="1">
  <advance width="446"/>
  <outline>
    <contour>
      <point x="145" y="334" type="curve" smooth="yes" name="hr00"/>
      <point x="195" y="334"/>
      <point x="217" y="363"/>
      <point x="223" y="398" type="curve"/>
      <point x="227" y="398" type="line"/>
      <point x="235" y="362"/>
      <point x="259" y="334"/>
      <point x="312" y="334" type="curve" smooth="yes"/>
      <point x="374" y="334"/>
      <point x="414" y="377"/>
      <point x="414" y="459" type="curve" smooth="yes"/>
      <point x="414" y="530"/>
      <point x="374" y="563"/>
      <point x="322" y="563" type="curve" smooth="yes"/>
      <point x="312" y="563"/>
      <point x="296" y="561"/>
      <point x="288" y="559" type="curve"/>
      <point x="294" y="511" type="line"/>
      <point x="300" y="512"/>
      <point x="308" y="512"/>
      <point x="310" y="512" type="curve" smooth="yes"/>
      <point x="331" y="512"/>
      <point x="345" y="498"/>
      <point x="345" y="473" type="curve" smooth="yes"/>
      <point x="345" y="443" type="line" smooth="yes"/>
      <point x="345" y="413"/>
      <point x="329" y="394"/>
      <point x="300" y="394" type="curve" smooth="yes"/>
      <point x="266" y="394"/>
      <point x="252" y="420"/>
      <point x="252" y="458" type="curve" smooth="yes"/>
      <point x="252" y="481" type="line"/>
      <point x="200" y="481" type="line"/>
      <point x="200" y="458" type="line" smooth="yes"/>
      <point x="200" y="422"/>
      <point x="192" y="395"/>
      <point x="161" y="395" type="curve" smooth="yes"/>
      <point x="124" y="395"/>
      <point x="112" y="424"/>
      <point x="112" y="476" type="curve" smooth="yes"/>
      <point x="112" y="515" type="line" smooth="yes"/>
      <point x="112" y="587"/>
      <point x="144" y="616"/>
      <point x="196" y="626" type="curve" smooth="yes"/>
      <point x="330" y="652" type="line" smooth="yes"/>
      <point x="380" y="661"/>
      <point x="392" y="678"/>
      <point x="396" y="712" type="curve" smooth="yes"/>
      <point x="403" y="769" type="line"/>
      <point x="336" y="769" type="line"/>
      <point x="329" y="725" type="line" smooth="yes"/>
      <point x="326" y="708"/>
      <point x="318" y="702"/>
      <point x="296" y="698" type="curve" smooth="yes"/>
      <point x="167" y="674" type="line" smooth="yes"/>
      <point x="100" y="662"/>
      <point x="35" y="625"/>
      <point x="35" y="498" type="curve" smooth="yes"/>
      <point x="35" y="381"/>
      <point x="77" y="334"/>
    </contour>
  </outline>
</glyph>
<glyph name="five-thai.sups" format="1">
  <advance width="400"/>
  <outline>
    <contour>
      <point x="218" y="343" type="curve" smooth="yes" name="hr00"/>
      <point x="373" y="343" type="line"/>
      <point x="373" y="403" type="line"/>
      <point x="320" y="403"/>
      <point x="294" y="446"/>
      <point x="294" y="487" type="curve" smooth="yes"/>
      <point x="294" y="508" type="line"/>
      <point x="357" y="508" type="line"/>
      <point x="357" y="566" type="line"/>
      <point x="294" y="566" type="line" smooth="yes"/>
      <point x="244" y="566"/>
      <point x="220" y="545"/>
      <point x="220" y="514" type="curve" smooth="yes"/>
      <point x="220" y="502" type="line" smooth="yes"/>
      <point x="220" y="443"/>
      <point x="261" y="415"/>
      <point x="305" y="406" type="curve"/>
      <point x="305" y="403" type="line"/>
      <point x="218" y="403" type="line" smooth="yes"/>
      <point x="143" y="403"/>
      <point x="111" y="439"/>
      <point x="111" y="495" type="curve" smooth="yes"/>
      <point x="111" y="529" type="line" smooth="yes"/>
      <point x="111" y="584"/>
      <point x="139" y="612"/>
      <point x="197" y="627" type="curve" smooth="yes"/>
      <point x="289" y="652" type="line" smooth="yes"/>
      <point x="348" y="668"/>
      <point x="352" y="690"/>
      <point x="355" y="712" type="curve" smooth="yes"/>
      <point x="362" y="769" type="line"/>
      <point x="297" y="769" type="line"/>
      <point x="291" y="725" type="line" smooth="yes"/>
      <point x="289" y="707"/>
      <point x="276" y="698"/>
      <point x="259" y="694" type="curve" smooth="yes"/>
      <point x="247" y="691" type="line"/>
      <point x="249" y="697"/>
      <point x="250" y="704"/>
      <point x="250" y="711" type="curve" smooth="yes"/>
      <point x="250" y="753"/>
      <point x="221" y="782"/>
      <point x="175" y="782" type="curve" smooth="yes"/>
      <point x="129" y="782"/>
      <point x="99" y="753"/>
      <point x="99" y="711" type="curve" smooth="yes"/>
      <point x="99" y="687"/>
      <point x="109" y="668"/>
      <point x="126" y="656" type="curve"/>
      <point x="76" y="636"/>
      <point x="35" y="600"/>
      <point x="35" y="514" type="curve" smooth="yes"/>
      <point x="35" y="401"/>
      <point x="100" y="343"/>
    </contour>
    <contour>
      <point x="175" y="676" type="curve" smooth="yes"/>
      <point x="154" y="676"/>
      <point x="142" y="688"/>
      <point x="142" y="707" type="curve" smooth="yes"/>
      <point x="142" y="716" type="line" smooth="yes"/>
      <point x="142" y="733"/>
      <point x="154" y="745"/>
      <point x="175" y="745" type="curve" smooth="yes"/>
      <point x="195" y="745"/>
      <point x="208" y="733"/>
      <point x="208" y="716" type="curve" smooth="yes"/>
      <point x="208" y="707" type="line" smooth="yes"/>
      <point x="208" y="686"/>
      <point x="194" y="676"/>
    </contour>
  </outline>
</glyph>
<glyph name="four-thai.sups" format="1">
  <advance width="400"/>
  <outline>
    <contour>
      <point x="218" y="343" type="curve" smooth="yes" name="hr00"/>
      <point x="373" y="343" type="line"/>
      <point x="373" y="403" type="line"/>
      <point x="322" y="403"/>
      <point x="294" y="443"/>
      <point x="294" y="487" type="curve" smooth="yes"/>
      <point x="294" y="508" type="line"/>
      <point x="357" y="508" type="line"/>
      <point x="357" y="566" type="line"/>
      <point x="294" y="566" type="line" smooth="yes"/>
      <point x="244" y="566"/>
      <point x="220" y="545"/>
      <point x="220" y="514" type="curve" smooth="yes"/>
      <point x="220" y="502" type="line" smooth="yes"/>
      <point x="220" y="443"/>
      <point x="261" y="415"/>
      <point x="305" y="406" type="curve"/>
      <point x="305" y="403" type="line"/>
      <point x="218" y="403" type="line" smooth="yes"/>
      <point x="143" y="403"/>
      <point x="111" y="439"/>
      <point x="111" y="495" type="curve" smooth="yes"/>
      <point x="111" y="529" type="line" smooth="yes"/>
      <point x="111" y="584"/>
      <point x="139" y="612"/>
      <point x="197" y="627" type="curve" smooth="yes"/>
      <point x="289" y="652" type="line" smooth="yes"/>
      <point x="348" y="668"/>
      <point x="352" y="690"/>
      <point x="355" y="712" type="curve" smooth="yes"/>
      <point x="362" y="769" type="line"/>
      <point x="295" y="769" type="line"/>
      <point x="289" y="725" type="line" smooth="yes"/>
      <point x="286" y="705"/>
      <point x="272" y="702"/>
      <point x="256" y="698" type="curve" smooth="yes"/>
      <point x="167" y="674" type="line" smooth="yes"/>
      <point x="110" y="659"/>
      <point x="35" y="629"/>
      <point x="35" y="514" type="curve" smooth="yes"/>
      <point x="35" y="401"/>
      <point x="100" y="343"/>
    </contour>
  </outline>
</glyph>
<glyph name="maiChattawa-thai.narrow" format="1">
  <advance width="0"/>
  <outline>
    <contour>
      <point x="-212" y="653" type="line" name="hr00"/>
      <point x="-146" y="653" type="line"/>
      <point x="-146" y="734" type="line"/>
      <point x="-65" y="734" type="line"/>
      <point x="-65" y="795" type="line"/>
      <point x="-146" y="795" type="line"/>
      <point x="-146" y="876" type="line"/>
      <point x="-212" y="876" type="line"/>
      <point x="-212" y="795" type="line"/>
      <point x="-293" y="795" type="line"/>
      <point x="-293" y="734" type="line"/>
      <point x="-212" y="734" type="line"/>
    </contour>
    <contour>
      <point x="0.0" y="600.0" type="move" name="_topright"/>
    </contour>
  </outline>
</glyph>
<glyph name="maiChattawa-thai.small" format="1">
  <advance width="0"/>
  <outline>
    <contour>
      <point x="-63" y="850" type="line" name="hr00"/>
      <point x="0" y="850" type="line"/>
      <point x="0" y="923" type="line"/>
      <point x="76" y="923" type="line"/>
      <point x="76" y="977" type="line"/>
      <point x="0" y="977" type="line"/>
      <point x="0" y="1050" type="line"/>
      <point x="-63" y="1050" type="line"/>
      <point x="-63" y="977" type="line"/>
      <point x="-139" y="977" type="line"/>
      <point x="-139" y="923" type="line"/>
      <point x="-63" y="923" type="line"/>
    </contour>
    <contour>
      <point x="0.0" y="800.0" type="move" name="_topright"/>
    </contour>
  </outline>
</glyph>
<glyph name="maiHanaKat-thai.narrow" format="1">
  <advance width="0"/>
  <outline>
    <contour>
      <point x="-284" y="653" type="curve" smooth="yes" name="hr00"/>
      <point x="-65" y="653" type="line"/>
      <point x="-65" y="722" type="line"/>
      <point x="-291" y="722" type="line"/>
      <point x="-291" y="795" type="line"/>
      <point x="-371" y="795" type="line"/>
      <point x="-371" y="733" type="line" smooth="yes"/>
      <point x="-371" y="685"/>
      <point x="-344" y="653"/>
    </contour>
    <contour>
      <point x="0.0" y="600.0" type="move" name="_topright"/>
    </contour>
    <contour>
      <point x="-65.0" y="800.0" type="move" name="topright"/>
    </contour>
  </outline>
</glyph>
<glyph name="maiHanaKat_maiTri-thai" format="1">
  <advance width="0"/>
  <outline>
    <contour>
      <point x="-171" y="858" type="line" name="hr00"/>
      <point x="-103" y="858" type="line"/>
      <point x="-103" y="929" type="line" smooth="yes"/>
      <point x="-103" y="953"/>
      <point x="-92" y="968"/>
      <point x="-69" y="968" type="curve" smooth="yes"/>
      <point x="-47" y="968"/>
      <point x="-34" y="956"/>
      <point x="-34" y="924" type="curve" smooth="yes"/>
      <point x="-34" y="905" type="line"/>
      <point x="19" y="905" type="line"/>
      <point x="19" y="924" type="line" smooth="yes"/>
      <point x="19" y="956"/>
      <point x="32" y="968"/>
      <point x="53" y="968" type="curve" smooth="yes"/>
      <point x="76" y="968"/>
      <point x="88" y="953"/>
      <point x="88" y="929" type="curve" smooth="yes"/>
      <point x="88" y="858" type="line"/>
      <point x="235" y="858" type="line"/>
      <point x="235" y="918" type="line"/>
      <point x="156" y="918" type="line"/>
      <point x="156" y="940" type="line" smooth="yes"/>
      <point x="156" y="992"/>
      <point x="124" y="1026"/>
      <point x="71" y="1026" type="curve" smooth="yes"/>
      <point x="33" y="1026"/>
      <point x="4" y="1004"/>
      <point x="-5" y="964" type="curve"/>
      <point x="-10" y="964" type="line"/>
      <point x="-19" y="1004"/>
      <point x="-49" y="1026"/>
      <point x="-88" y="1026" type="curve" smooth="yes"/>
      <point x="-140" y="1026"/>
      <point x="-171" y="992"/>
      <point x="-171" y="940" type="curve" smooth="yes"/>
    </contour>
    <contour>
      <point x="-84" y="653" type="curve" smooth="yes"/>
      <point x="164" y="653" type="line"/>
      <point x="164" y="722" type="line"/>
      <point x="-91" y="722" type="line"/>
      <point x="-91" y="795" type="line"/>
      <point x="-171" y="795" type="line"/>
      <point x="-171" y="733" type="line" smooth="yes"/>
      <point x="-171" y="685"/>
      <point x="-144" y="653"/>
    </contour>
    <contour>
      <point x="0.0" y="600.0" type="move" name="_topright"/>
    </contour>
  </outline>
</glyph>
<glyph name="maiHanaKat_maitaikhu-thai" format="1">
  <advance width="0"/>
  <outline>
    <contour>
      <point x="-258" y="851" type="curve" smooth="yes" name="hr00"/>
      <point x="-215" y="851"/>
      <point x="-183" y="873"/>
      <point x="-173" y="914" type="curve"/>
      <point x="-169" y="914" type="line"/>
      <point x="-157" y="871"/>
      <point x="-120" y="851"/>
      <point x="-84" y="851" type="curve" smooth="yes"/>
      <point x="-24" y="851"/>
      <point x="13" y="889"/>
      <point x="13" y="952" type="curve" smooth="yes"/>
      <point x="13" y="982" type="line"/>
      <point x="-50" y="982" type="line"/>
      <point x="-50" y="959" type="line" smooth="yes"/>
      <point x="-50" y="923"/>
      <point x="-71" y="906"/>
      <point x="-95" y="906" type="curve" smooth="yes"/>
      <point x="-131" y="906"/>
      <point x="-143" y="940"/>
      <point x="-146" y="966" type="curve"/>
      <point x="-196" y="966" type="line"/>
      <point x="-199" y="940"/>
      <point x="-209" y="906"/>
      <point x="-244" y="906" type="curve" smooth="yes"/>
      <point x="-274" y="906"/>
      <point x="-292" y="925"/>
      <point x="-292" y="962" type="curve" smooth="yes"/>
      <point x="-292" y="998"/>
      <point x="-271" y="1021"/>
      <point x="-236" y="1021" type="curve" smooth="yes"/>
      <point x="13" y="1021" type="line"/>
      <point x="13" y="1076" type="line"/>
      <point x="-234" y="1076" type="line" smooth="yes"/>
      <point x="-310" y="1076"/>
      <point x="-355" y="1028"/>
      <point x="-355" y="958" type="curve" smooth="yes"/>
      <point x="-355" y="893"/>
      <point x="-315" y="851"/>
    </contour>
    <contour>
      <point x="-248" y="653" type="curve" smooth="yes"/>
      <point x="0" y="653" type="line"/>
      <point x="0" y="722" type="line"/>
      <point x="-255" y="722" type="line"/>
      <point x="-255" y="795" type="line"/>
      <point x="-335" y="795" type="line"/>
      <point x="-335" y="733" type="line" smooth="yes"/>
      <point x="-335" y="685"/>
      <point x="-308" y="653"/>
    </contour>
    <contour>
      <point x="0.0" y="600.0" type="move" name="_topright"/>
    </contour>
  </outline>
</glyph>
<glyph name="maiTho-thai.narrow" format="1">
  <advance width="0"/>
  <outline>
    <contour>
      <point x="-376" y="662" type="line" name="hr00"/>
      <point x="-66" y="662" type="line"/>
      <point x="-66" y="722" type="line"/>
      <point x="-265" y="722" type="line"/>
      <point x="-265" y="726" type="line"/>
      <point x="-240" y="738"/>
      <point x="-228" y="769"/>
      <point x="-228" y="793" type="curve" smooth="yes"/>
      <point x="-228" y="837"/>
      <point x="-260" y="866"/>
      <point x="-320" y="866" type="curve" smooth="yes"/>
      <point x="-376" y="866" type="line"/>
      <point x="-376" y="806" type="line"/>
      <point x="-350" y="806" type="line" smooth="yes"/>
      <point x="-314" y="806"/>
      <point x="-300" y="793"/>
      <point x="-300" y="759" type="curve" smooth="yes"/>
      <point x="-300" y="722" type="line"/>
      <point x="-376" y="722" type="line"/>
    </contour>
    <contour>
      <point x="0.0" y="600.0" type="move" name="_topright"/>
    </contour>
  </outline>
</glyph>
<glyph name="maiTri-thai.narrow" format="1">
  <advance width="0"/>
  <outline>
    <contour>
      <point x="-433" y="662" type="line" name="hr00"/>
      <point x="-365" y="662" type="line"/>
      <point x="-365" y="740" type="line" smooth="yes"/>
      <point x="-365" y="764"/>
      <point x="-354" y="779"/>
      <point x="-333" y="779" type="curve" smooth="yes"/>
      <point x="-311" y="779"/>
      <point x="-299" y="766"/>
      <point x="-299" y="735" type="curve" smooth="yes"/>
      <point x="-299" y="716" type="line"/>
      <point x="-246" y="716" type="line"/>
      <point x="-246" y="735" type="line" smooth="yes"/>
      <point x="-246" y="766"/>
      <point x="-234" y="779"/>
      <point x="-212" y="779" type="curve" smooth="yes"/>
      <point x="-191" y="779"/>
      <point x="-180" y="764"/>
      <point x="-180" y="740" type="curve" smooth="yes"/>
      <point x="-180" y="662" type="line"/>
      <point x="-56" y="662" type="line"/>
      <point x="-56" y="722" type="line"/>
      <point x="-112" y="722" type="line"/>
      <point x="-112" y="753" type="line" smooth="yes"/>
      <point x="-112" y="803"/>
      <point x="-142" y="837"/>
      <point x="-193" y="837" type="curve" smooth="yes"/>
      <point x="-230" y="837"/>
      <point x="-262" y="815"/>
      <point x="-270" y="775" type="curve"/>
      <point x="-276" y="775" type="line"/>
      <point x="-283" y="815"/>
      <point x="-314" y="837"/>
      <point x="-351" y="837" type="curve" smooth="yes"/>
      <point x="-403" y="837"/>
      <point x="-433" y="803"/>
      <point x="-433" y="753" type="curve" smooth="yes"/>
    </contour>
    <contour>
      <point x="0.0" y="600.0" type="move" name="_topright"/>
    </contour>
    <contour>
      <point x="-112.0" y="800.0" type="move" name="topright"/>
    </contour>
  </outline>
</glyph>
<glyph name="maiTri-thai.small" format="1">
  <advance width="0"/>
  <outline>
    <contour>
      <point x="-338" y="858" type="line" name="hr00"/>
      <point x="-270" y="858" type="line"/>
      <point x="-270" y="929" type="line" smooth="yes"/>
      <point x="-270" y="953"/>
      <point x="-259" y="968"/>
      <point x="-236" y="968" type="curve" smooth="yes"/>
      <point x="-214" y="968"/>
      <point x="-201" y="956"/>
      <point x="-201" y="924" type="curve" smooth="yes"/>
      <point x="-201" y="905" type="line"/>
      <point x="-148" y="905" type="line"/>
      <point x="-148" y="924" type="line" smooth="yes"/>
      <point x="-148" y="956"/>
      <point x="-135" y="968"/>
      <point x="-114" y="968" type="curve" smooth="yes"/>
      <point x="-91" y="968"/>
      <point x="-79" y="953"/>
      <point x="-79" y="929" type="curve" smooth="yes"/>
      <point x="-79" y="858" type="line"/>
      <point x="68" y="858" type="line"/>
      <point x="68" y="918" type="line"/>
      <point x="-11" y="918" type="line"/>
      <point x="-11" y="940" type="line" smooth="yes"/>
      <point x="-11" y="992"/>
      <point x="-43" y="1026"/>
      <point x="-96" y="1026" type="curve" smooth="yes"/>
      <point x="-134" y="1026"/>
      <point x="-163" y="1004"/>
      <point x="-172" y="964" type="curve"/>
      <point x="-177" y="964" type="line"/>
      <point x="-186" y="1004"/>
      <point x="-216" y="1026"/>
      <point x="-255" y="1026" type="curve" smooth="yes"/>
      <point x="-307" y="1026"/>
      <point x="-338" y="992"/>
      <point x="-338" y="940" type="curve" smooth="yes"/>
    </contour>
    <contour>
      <point x="0.0" y="800.0" type="move" name="_topright"/>
    </contour>
  </outline>
</glyph>
<glyph name="maitaikhu-thai.narrow" format="1">
  <advance width="0"/>
  <outline>
    <contour>
      <point x="-335" y="646" type="curve" smooth="yes" name="hr00"/>
      <point x="-295" y="646"/>
      <point x="-262" y="668"/>
      <point x="-251" y="714" type="curve"/>
      <point x="-247" y="714" type="line"/>
      <point x="-235" y="668"/>
      <point x="-197" y="646"/>
      <point x="-163" y="646" type="curve" smooth="yes"/>
      <point x="-104" y="646"/>
      <point x="-65" y="687"/>
      <point x="-65" y="754" type="curve" smooth="yes"/>
      <point x="-65" y="787" type="line"/>
      <point x="-131" y="787" type="line"/>
      <point x="-131" y="762" type="line" smooth="yes"/>
      <point x="-131" y="724"/>
      <point x="-150" y="705"/>
      <point x="-175" y="705" type="curve" smooth="yes"/>
      <point x="-208" y="705"/>
      <point x="-220" y="742"/>
      <point x="-223" y="770" type="curve"/>
      <point x="-274" y="770" type="line"/>
      <point x="-276" y="742"/>
      <point x="-288" y="705"/>
      <point x="-322" y="705" type="curve" smooth="yes"/>
      <point x="-352" y="705"/>
      <point x="-369" y="726"/>
      <point x="-369" y="765" type="curve" smooth="yes"/>
      <point x="-369" y="805"/>
      <point x="-344" y="829"/>
      <point x="-301" y="829" type="curve" smooth="yes"/>
      <point x="-65" y="829" type="line"/>
      <point x="-65" y="889" type="line"/>
      <point x="-299" y="889" type="line" smooth="yes"/>
      <point x="-384" y="889"/>
      <point x="-435" y="842"/>
      <point x="-435" y="762" type="curve" smooth="yes"/>
      <point x="-435" y="692"/>
      <point x="-394" y="646"/>
    </contour>
    <contour>
      <point x="0.0" y="600.0" type="move" name="_topright"/>
    </contour>
    <contour>
      <point x="-65.0" y="875.0" type="move" name="topright"/>
    </contour>
  </outline>
</glyph>
<glyph name="maitaikhu-thai.small" format="1">
  <advance width="0"/>
  <outline>
    <contour>
      <point x="-271" y="851" type="curve" smooth="yes" name="hr00"/>
      <point x="-228" y="851"/>
      <point x="-196" y="873"/>
      <point x="-186" y="914" type="curve"/>
      <point x="-182" y="914" type="line"/>
      <point x="-170" y="871"/>
      <point x="-133" y="851"/>
      <point x="-97" y="851" type="curve" smooth="yes"/>
      <point x="-37" y="851"/>
      <point x="0" y="889"/>
      <point x="0" y="952" type="curve" smooth="yes"/>
      <point x="0" y="982" type="line"/>
      <point x="-63" y="982" type="line"/>
      <point x="-63" y="959" type="line" smooth="yes"/>
      <point x="-63" y="923"/>
      <point x="-84" y="906"/>
      <point x="-108" y="906" type="curve" smooth="yes"/>
      <point x="-144" y="906"/>
      <point x="-156" y="940"/>
      <point x="-159" y="966" type="curve"/>
      <point x="-209" y="966" type="line"/>
      <point x="-212" y="940"/>
      <point x="-222" y="906"/>
      <point x="-257" y="906" type="curve" smooth="yes"/>
      <point x="-287" y="906"/>
      <point x="-305" y="925"/>
      <point x="-305" y="962" type="curve" smooth="yes"/>
      <point x="-305" y="998"/>
      <point x="-284" y="1021"/>
      <point x="-249" y="1021" type="curve" smooth="yes"/>
      <point x="0" y="1021" type="line"/>
      <point x="0" y="1076" type="line"/>
      <point x="-247" y="1076" type="line" smooth="yes"/>
      <point x="-323" y="1076"/>
      <point x="-368" y="1028"/>
      <point x="-368" y="958" type="curve" smooth="yes"/>
      <point x="-368" y="893"/>
      <point x="-328" y="851"/>
    </contour>
    <contour>
      <point x="0.0" y="800.0" type="move" name="_topright"/>
    </contour>
  </outline>
</glyph>
<glyph name="ngoNgu-thai_macronbelowcomb" format="1">
  <advance width="544"/>
  <outline>
    <contour>
      <point x="206" y="0" type="line" name="hr00"/>
      <point x="268" y="0" type="line" smooth="yes"/>
      <point x="405" y="0"/>
      <point x="484" y="102"/>
      <point x="484" y="273" type="curve" smooth="yes"/>
      <point x="484" y="444"/>
      <point x="403" y="546"/>
      <point x="267" y="546" type="curve" smooth="yes"/>
      <point x="234" y="546" type="line"/>
      <point x="234" y="477" type="line"/>
      <point x="266" y="477" type="line" smooth="yes"/>
      <point x="349" y="477"/>
      <point x="398" y="416"/>
      <point x="398" y="314" type="curve" smooth="yes"/>
      <point x="398" y="232" type="line" smooth="yes"/>
      <point x="398" y="128"/>
      <point x="350" y="67"/>
      <point x="266" y="67" type="curve" smooth="yes"/>
      <point x="263" y="67" type="line"/>
      <point x="118" y="395" type="line"/>
      <point x="32" y="395" type="line"/>
    </contour>
    <contour>
      <point x="85" y="-177" type="line"/>
      <point x="467" y="-177" type="line"/>
      <point x="467" y="-113" type="line"/>
      <point x="85" y="-113" type="line"/>
    </contour>
    <contour>
      <point x="467.0" y="-140.0" type="move" name="bottomright"/>
    </contour>
    <contour>
      <point x="271.0" y="558.0" type="move" name="top"/>
    </contour>
    <contour>
      <point x="474.0" y="600.0" type="move" name="topright"/>
    </contour>
  </outline>
</glyph>
<glyph name="nine-thai.sups" format="1">
  <advance width="492"/>
  <outline>
    <contour>
      <point x="180" y="336" type="curve" smooth="yes" name="hr00"/>
      <point x="192" y="336"/>
      <point x="205" y="336"/>
      <point x="215" y="338" type="curve"/>
      <point x="213" y="397" type="line"/>
      <point x="201" y="395"/>
      <point x="195" y="395"/>
      <point x="189" y="395" type="curve" smooth="yes"/>
      <point x="138" y="395"/>
      <point x="116" y="436"/>
      <point x="116" y="486" type="curve" smooth="yes"/>
      <point x="116" y="570" type="line" smooth="yes"/>
      <point x="116" y="618"/>
      <point x="133" y="649"/>
      <point x="169" y="649" type="curve" smooth="yes"/>
      <point x="202" y="649"/>
      <point x="219" y="627"/>
      <point x="234" y="579" type="curve" smooth="yes"/>
      <point x="308" y="343" type="line"/>
      <point x="385" y="343" type="line"/>
      <point x="316" y="555" type="line" smooth="yes"/>
      <point x="310" y="572"/>
      <point x="308" y="586"/>
      <point x="308" y="598" type="curve" smooth="yes"/>
      <point x="308" y="634"/>
      <point x="329" y="649"/>
      <point x="353" y="649" type="curve" smooth="yes"/>
      <point x="388" y="649"/>
      <point x="409" y="620"/>
      <point x="409" y="576" type="curve"/>
      <point x="470" y="579" type="line"/>
      <point x="502" y="769" type="line"/>
      <point x="433" y="769" type="line"/>
      <point x="414" y="623" type="line"/>
      <point x="411" y="623" type="line"/>
      <point x="411" y="673"/>
      <point x="391" y="710"/>
      <point x="345" y="710" type="curve" smooth="yes"/>
      <point x="309" y="710"/>
      <point x="281" y="684"/>
      <point x="281" y="638" type="curve" smooth="yes"/>
      <point x="281" y="630"/>
      <point x="282" y="621"/>
      <point x="284" y="611" type="curve"/>
      <point x="281" y="610" type="line"/>
      <point x="261" y="673"/>
      <point x="224" y="710"/>
      <point x="165" y="710" type="curve" smooth="yes"/>
      <point x="85" y="710"/>
      <point x="40" y="648"/>
      <point x="40" y="534" type="curve" smooth="yes"/>
      <point x="40" y="402"/>
      <point x="90" y="336"/>
    </contour>
  </outline>
</glyph>
<glyph name="one-thai.sups" format="1">
  <advance width="404"/>
  <outline>
    <contour>
      <point x="133" y="319" type="line" name="hr00"/>
      <point x="270" y="324"/>
      <point x="364" y="386"/>
      <point x="364" y="528" type="curve" smooth="yes"/>
      <point x="364" y="644"/>
      <point x="300" y="710"/>
      <point x="194" y="710" type="curve" smooth="yes"/>
      <point x="97" y="710"/>
      <point x="33" y="655"/>
      <point x="33" y="573" type="curve" smooth="yes"/>
      <point x="33" y="497"/>
      <point x="79" y="454"/>
      <point x="155" y="454" type="curve" smooth="yes"/>
      <point x="167" y="454"/>
      <point x="184" y="456"/>
      <point x="194" y="459" type="curve"/>
      <point x="189" y="512" type="line"/>
      <point x="180" y="511"/>
      <point x="173" y="511"/>
      <point x="164" y="511" type="curve" smooth="yes"/>
      <point x="122" y="511"/>
      <point x="106" y="538"/>
      <point x="106" y="568" type="curve" smooth="yes"/>
      <point x="106" y="580" type="line" smooth="yes"/>
      <point x="106" y="617"/>
      <point x="138" y="650"/>
      <point x="191" y="650" type="curve" smooth="yes"/>
      <point x="251" y="650"/>
      <point x="288" y="612"/>
      <point x="288" y="545" type="curve" smooth="yes"/>
      <point x="288" y="511" type="line" smooth="yes"/>
      <point x="288" y="422"/>
      <point x="231" y="381"/>
      <point x="125" y="378" type="curve"/>
    </contour>
  </outline>
</glyph>
<glyph name="ru_lakkhangyao-thai" format="1">
  <advance width="929"/>
  <outline>
    <contour>
      <point x="451" y="-180" type="line" name="hr00"/>
      <point x="531" y="-180" type="line"/>
      <point x="531" y="341" type="line" smooth="yes"/>
      <point x="531" y="368"/>
      <point x="528" y="392"/>
      <point x="521" y="414" type="curve"/>
      <point x="549" y="461"/>
      <point x="588" y="490"/>
      <point x="650" y="490" type="curve" smooth="yes"/>
      <point x="730" y="490"/>
      <point x="769" y="450"/>
      <point x="769" y="375" type="curve" smooth="yes"/>
      <point x="769" y="-180" type="line"/>
      <point x="849" y="-180" type="line"/>
      <point x="849" y="382" type="line" smooth="yes"/>
      <point x="849" y="493"/>
      <point x="779" y="558"/>
      <point x="655" y="558" type="curve" smooth="yes"/>
      <point x="574" y="558"/>
      <point x="519" y="526"/>
      <point x="486" y="481" type="curve"/>
      <point x="446" y="530"/>
      <point x="380" y="558"/>
      <point x="290" y="558" type="curve" smooth="yes"/>
      <point x="158" y="558"/>
      <point x="57" y="470"/>
      <point x="49" y="348" type="curve"/>
      <point x="134" y="312" type="line"/>
      <point x="134" y="84" type="line" smooth="yes"/>
      <point x="134" y="33"/>
      <point x="163" y="0"/>
      <point x="220" y="0" type="curve" smooth="yes"/>
      <point x="278" y="0" type="line"/>
      <point x="278" y="70" type="line"/>
      <point x="214" y="70" type="line"/>
      <point x="214" y="309" type="line" smooth="yes"/>
      <point x="214" y="338"/>
      <point x="203" y="352"/>
      <point x="174" y="364" type="curve" smooth="yes"/>
      <point x="124" y="384" type="line"/>
      <point x="143" y="449"/>
      <point x="211" y="489"/>
      <point x="293" y="489" type="curve" smooth="yes"/>
      <point x="387" y="489"/>
      <point x="451" y="434"/>
      <point x="451" y="331" type="curve" smooth="yes"/>
    </contour>
    <contour>
      <point x="488.0" y="558.0" type="move" name="top"/>
    </contour>
  </outline>
</glyph>
<glyph name="saraI-thai.narrow" format="1">
  <advance width="0"/>
  <outline>
    <contour>
      <point x="-433" y="653" type="line" name="hr00"/>
      <point x="-65" y="653" type="line"/>
      <point x="-65" y="722" type="line"/>
      <point x="-433" y="722" type="line"/>
    </contour>
    <contour>
      <point x="0.0" y="600.0" type="move" name="_topright"/>
    </contour>
    <contour>
      <point x="-65.0" y="760.0" type="move" name="topright"/>
    </contour>
  </outline>
</glyph>
<glyph name="saraUe-thai.narrow" format="1">
  <advance width="0"/>
  <outline>
    <contour>
      <point x="-433" y="653" type="line" name="hr00"/>
      <point x="-117" y="653" type="line" smooth="yes"/>
      <point x="-57" y="653"/>
      <point x="-17" y="690"/>
      <point x="-17" y="747" type="curve" smooth="yes"/>
      <point x="-17" y="803"/>
      <point x="-57" y="839"/>
      <point x="-117" y="839" type="curve" smooth="yes"/>
      <point x="-178" y="839"/>
      <point x="-217" y="803"/>
      <point x="-217" y="747" type="curve" smooth="yes"/>
      <point x="-217" y="738"/>
      <point x="-216" y="730"/>
      <point x="-214" y="722" type="curve"/>
      <point x="-433" y="722" type="line"/>
    </contour>
    <contour>
      <point x="-117" y="701" type="curve" smooth="yes"/>
      <point x="-147" y="701"/>
      <point x="-163" y="716"/>
      <point x="-163" y="742" type="curve" smooth="yes"/>
      <point x="-163" y="752" type="line" smooth="yes"/>
      <point x="-163" y="778"/>
      <point x="-147" y="793"/>
      <point x="-117" y="793" type="curve" smooth="yes"/>
      <point x="-87" y="793"/>
      <point x="-71" y="778"/>
      <point x="-71" y="752" type="curve" smooth="yes"/>
      <point x="-71" y="742" type="line" smooth="yes"/>
      <point x="-71" y="716"/>
      <point x="-87" y="701"/>
    </contour>
    <contour>
      <point x="0.0" y="600.0" type="move" name="_topright"/>
    </contour>
    <contour>
      <point x="-79.0" y="840.0" type="move" name="topright"/>
    </contour>
  </outline>
</glyph>
<glyph name="saraUee-thai.narrow" format="1">
  <advance width="0"/>
  <outline>
    <contour>
      <point x="-432" y="653" type="line" name="hr00"/>
      <point x="-65" y="653" type="line"/>
      <point x="-65" y="795" type="line"/>
      <point x="-138" y="795" type="line"/>
      <point x="-138" y="718" type="line"/>
      <point x="-211" y="718" type="line"/>
      <point x="-211" y="795" type="line"/>
      <point x="-281" y="795" type="line"/>
      <point x="-281" y="722" type="line"/>
      <point x="-432" y="722" type="line"/>
    </contour>
    <contour>
      <point x="0.0" y="600.0" type="move" name="_topright"/>
    </contour>
    <contour>
      <point x="-65.0" y="800.0" type="move" name="topright"/>
    </contour>
  </outline>
</glyph>
<glyph name="seven-thai.sups" format="1">
  <advance width="617"/>
  <outline>
    <contour>
      <point x="191" y="334" type="curve" smooth="yes" name="hr00"/>
      <point x="206" y="334"/>
      <point x="230" y="336"/>
      <point x="243" y="340" type="curve"/>
      <point x="235" y="400" type="line"/>
      <point x="223" y="396"/>
      <point x="211" y="395"/>
      <point x="202" y="395" type="curve" smooth="yes"/>
      <point x="143" y="395"/>
      <point x="117" y="445"/>
      <point x="117" y="509" type="curve" smooth="yes"/>
      <point x="117" y="564" type="line" smooth="yes"/>
      <point x="117" y="618"/>
      <point x="130" y="650"/>
      <point x="162" y="650" type="curve" smooth="yes"/>
      <point x="189" y="650"/>
      <point x="200" y="627"/>
      <point x="201" y="590" type="curve"/>
      <point x="247" y="590" type="line"/>
      <point x="249" y="627"/>
      <point x="261" y="650"/>
      <point x="291" y="650" type="curve" smooth="yes"/>
      <point x="322" y="650"/>
      <point x="329" y="622"/>
      <point x="329" y="597" type="curve" smooth="yes"/>
      <point x="329" y="343" type="line"/>
      <point x="418" y="343" type="line" smooth="yes"/>
      <point x="512" y="343"/>
      <point x="564" y="396"/>
      <point x="564" y="484" type="curve" smooth="yes"/>
      <point x="564" y="769" type="line"/>
      <point x="491" y="769" type="line"/>
      <point x="491" y="491" type="line" smooth="yes"/>
      <point x="491" y="429"/>
      <point x="464" y="398"/>
      <point x="418" y="398" type="curve" smooth="yes"/>
      <point x="402" y="398" type="line"/>
      <point x="402" y="596" type="line" smooth="yes"/>
      <point x="402" y="669"/>
      <point x="372" y="710"/>
      <point x="309" y="710" type="curve" smooth="yes"/>
      <point x="259" y="710"/>
      <point x="234" y="681"/>
      <point x="228" y="648" type="curve"/>
      <point x="223" y="648" type="line"/>
      <point x="217" y="682"/>
      <point x="191" y="710"/>
      <point x="147" y="710" type="curve" smooth="yes"/>
      <point x="75" y="710"/>
      <point x="40" y="651"/>
      <point x="40" y="534" type="curve" smooth="yes"/>
      <point x="40" y="408"/>
      <point x="95" y="334"/>
    </contour>
  </outline>
</glyph>
<glyph name="six-thai.sups" format="1">
  <advance width="407"/>
  <outline>
    <contour>
      <point x="191" y="334" type="curve" smooth="yes" name="hr00"/>
      <point x="300" y="334"/>
      <point x="367" y="405"/>
      <point x="367" y="525" type="curve" smooth="yes"/>
      <point x="367" y="641"/>
      <point x="311" y="710"/>
      <point x="222" y="710" type="curve" smooth="yes"/>
      <point x="159" y="710"/>
      <point x="119" y="674"/>
      <point x="107" y="623" type="curve"/>
      <point x="102" y="623" type="line"/>
      <point x="82" y="769" type="line"/>
      <point x="12" y="769" type="line"/>
      <point x="46" y="579" type="line"/>
      <point x="107" y="576" type="line"/>
      <point x="117" y="622"/>
      <point x="149" y="650"/>
      <point x="200" y="650" type="curve" smooth="yes"/>
      <point x="256" y="650"/>
      <point x="291" y="615"/>
      <point x="291" y="555" type="curve" smooth="yes"/>
      <point x="291" y="494" type="line" smooth="yes"/>
      <point x="291" y="432"/>
      <point x="252" y="394"/>
      <point x="188" y="394" type="curve" smooth="yes"/>
      <point x="139" y="394"/>
      <point x="112" y="420"/>
      <point x="95" y="456" type="curve"/>
      <point x="38" y="430" type="line"/>
      <point x="65" y="367"/>
      <point x="118" y="334"/>
    </contour>
  </outline>
</glyph>
<glyph name="thanthakhat-thai.narrow" format="1">
  <advance width="0"/>
  <outline>
    <contour>
      <point x="-346" y="654" type="line" name="hr00"/>
      <point x="-266" y="654" type="line"/>
      <point x="-266" y="727" type="line"/>
      <point x="-65" y="727" type="line"/>
      <point x="-65" y="796" type="line"/>
      <point x="-259" y="796" type="line" smooth="yes"/>
      <point x="-318" y="796"/>
      <point x="-346" y="764"/>
      <point x="-346" y="716" type="curve" smooth="yes"/>
    </contour>
    <contour>
      <point x="0.0" y="600.0" type="move" name="_topright"/>
    </contour>
  </outline>
</glyph>
<glyph name="thanthakhat-thai.small" format="1">
  <advance width="0"/>
  <outline>
    <contour>
      <point x="-168" y="858" type="line" name="hr00"/>
      <point x="-94" y="858" type="line"/>
      <point x="-94" y="924" type="line"/>
      <point x="106" y="924" type="line"/>
      <point x="106" y="989" type="line"/>
      <point x="-88" y="989" type="line" smooth="yes"/>
      <point x="-142" y="989"/>
      <point x="-168" y="960"/>
      <point x="-168" y="914" type="curve" smooth="yes"/>
    </contour>
    <contour>
      <point x="0.0" y="800.0" type="move" name="_topright"/>
    </contour>
  </outline>
</glyph>
<glyph name="thoThan-thai.less" format="1">
  <advance width="619"/>
  <outline>
    <contour>
      <point x="223" y="0" type="line" name="hr00"/>
      <point x="311" y="0" type="line" smooth="yes"/>
      <point x="435" y="0"/>
      <point x="514" y="105"/>
      <point x="514" y="278" type="curve" smooth="yes"/>
      <point x="514" y="376"/>
      <point x="486" y="452"/>
      <point x="435" y="500" type="curve"/>
      <point x="610" y="500" type="line"/>
      <point x="610" y="574" type="line"/>
      <point x="463" y="574" type="line" smooth="yes"/>
      <point x="425" y="574"/>
      <point x="409" y="557"/>
      <point x="407" y="521" type="curve"/>
      <point x="370" y="545"/>
      <point x="324" y="558"/>
      <point x="270" y="558" type="curve" smooth="yes"/>
      <point x="141" y="558"/>
      <point x="61" y="501"/>
      <point x="26" y="433" type="curve"/>
      <point x="78" y="387" type="line"/>
      <point x="113" y="447"/>
      <point x="173" y="489"/>
      <point x="267" y="489" type="curve" smooth="yes"/>
      <point x="367" y="489"/>
      <point x="429" y="426"/>
      <point x="429" y="319" type="curve" smooth="yes"/>
      <point x="429" y="237" type="line" smooth="yes"/>
      <point x="429" y="131"/>
      <point x="385" y="67"/>
      <point x="320" y="67" type="curve" smooth="yes"/>
      <point x="282" y="67" type="line"/>
      <point x="210" y="272" type="line" smooth="yes"/>
      <point x="203" y="293"/>
      <point x="183" y="301"/>
      <point x="163" y="301" type="curve" smooth="yes"/>
      <point x="81" y="301" type="line"/>
      <point x="81" y="232" type="line"/>
      <point x="142" y="232" type="line"/>
    </contour>
    <contour>
      <point x="483.0" y="0.0" type="move" name="bottomright"/>
    </contour>
    <contour>
      <point x="271.0" y="558.0" type="move" name="top"/>
    </contour>
    <contour>
      <point x="483.0" y="600.0" type="move" name="topright"/>
    </contour>
  </outline>
</glyph>
<glyph name="two-thai.sups" format="1">
  <advance width="575"/>
  <outline>
    <contour>
      <point x="288" y="334" type="curve" smooth="yes" name="hr00"/>
      <point x="507" y="334"/>
      <point x="522" y="424"/>
      <point x="522" y="494" type="curve" smooth="yes"/>
      <point x="522" y="607" type="line" smooth="yes"/>
      <point x="522" y="672"/>
      <point x="493" y="710"/>
      <point x="434" y="710" type="curve" smooth="yes"/>
      <point x="388" y="710"/>
      <point x="363" y="679"/>
      <point x="357" y="648" type="curve"/>
      <point x="353" y="648" type="line"/>
      <point x="347" y="681"/>
      <point x="322" y="710"/>
      <point x="277" y="710" type="curve" smooth="yes"/>
      <point x="217" y="710"/>
      <point x="189" y="667"/>
      <point x="189" y="593" type="curve" smooth="yes"/>
      <point x="189" y="518"/>
      <point x="221" y="475"/>
      <point x="294" y="475" type="curve" smooth="yes"/>
      <point x="306" y="475"/>
      <point x="324" y="476"/>
      <point x="333" y="480" type="curve"/>
      <point x="328" y="525" type="line"/>
      <point x="322" y="524"/>
      <point x="317" y="523"/>
      <point x="307" y="523" type="curve" smooth="yes"/>
      <point x="271" y="523"/>
      <point x="259" y="548"/>
      <point x="259" y="574" type="curve" smooth="yes"/>
      <point x="259" y="604" type="line" smooth="yes"/>
      <point x="259" y="629"/>
      <point x="267" y="650"/>
      <point x="294" y="650" type="curve" smooth="yes"/>
      <point x="319" y="650"/>
      <point x="330" y="628"/>
      <point x="330" y="590" type="curve"/>
      <point x="378" y="590" type="line"/>
      <point x="379" y="627"/>
      <point x="391" y="650"/>
      <point x="415" y="650" type="curve" smooth="yes"/>
      <point x="442" y="650"/>
      <point x="449" y="631"/>
      <point x="449" y="606" type="curve" smooth="yes"/>
      <point x="449" y="496" type="line" smooth="yes"/>
      <point x="449" y="468"/>
      <point x="443" y="442"/>
      <point x="424" y="423" type="curve" smooth="yes"/>
      <point x="406" y="405"/>
      <point x="375" y="394"/>
      <point x="326" y="394" type="curve" smooth="yes"/>
      <point x="249" y="394" type="line" smooth="yes"/>
      <point x="200" y="394"/>
      <point x="169" y="405"/>
      <point x="151" y="423" type="curve" smooth="yes"/>
      <point x="132" y="442"/>
      <point x="126" y="468"/>
      <point x="126" y="496" type="curve" smooth="yes"/>
      <point x="126" y="769" type="line"/>
      <point x="53" y="769" type="line"/>
      <point x="53" y="494" type="line" smooth="yes"/>
      <point x="53" y="426"/>
      <point x="67" y="334"/>
    </contour>
  </outline>
</glyph>
<glyph name="yamakkan-thai.narrow" format="1">
  <advance width="0"/>
  <outline>
    <contour>
      <point x="-112" y="643" type="curve" smooth="yes" name="hr00"/>
      <point x="-65" y="643" type="line"/>
      <point x="-65" y="695" type="line"/>
      <point x="-93" y="695" type="line" smooth="yes"/>
      <point x="-129" y="695"/>
      <point x="-145" y="707"/>
      <point x="-145" y="728" type="curve" smooth="yes"/>
      <point x="-145" y="752"/>
      <point x="-128" y="767"/>
      <point x="-92" y="767" type="curve" smooth="yes"/>
      <point x="-47" y="767" type="line"/>
      <point x="-47" y="816" type="line"/>
      <point x="-68" y="816" type="line" smooth="yes"/>
      <point x="-97" y="816"/>
      <point x="-116" y="828"/>
      <point x="-116" y="852" type="curve" smooth="yes"/>
      <point x="-116" y="871"/>
      <point x="-100" y="884"/>
      <point x="-72" y="884" type="curve" smooth="yes"/>
      <point x="-57" y="884"/>
      <point x="-38" y="879"/>
      <point x="-26" y="871" type="curve"/>
      <point x="-8" y="920" type="line"/>
      <point x="-25" y="930"/>
      <point x="-48" y="937"/>
      <point x="-79" y="937" type="curve" smooth="yes"/>
      <point x="-141" y="937"/>
      <point x="-176" y="905"/>
      <point x="-176" y="862" type="curve" smooth="yes"/>
      <point x="-176" y="833"/>
      <point x="-159" y="809"/>
      <point x="-117" y="798" type="curve"/>
      <point x="-117" y="795" type="line"/>
      <point x="-180" y="791"/>
      <point x="-207" y="757"/>
      <point x="-207" y="720" type="curve" smooth="yes"/>
      <point x="-207" y="671"/>
      <point x="-173" y="643"/>
    </contour>
    <contour>
      <point x="0.0" y="600.0" type="move" name="_topright"/>
    </contour>
  </outline>
</glyph>
<glyph name="yoYing-thai.less" format="1">
  <advance width="915"/>
  <outline>
    <contour>
      <point x="634" y="-12" type="curve" smooth="yes" name="hr00"/>
      <point x="757" y="-12"/>
      <point x="835" y="64"/>
      <point x="835" y="180" type="curve" smooth="yes"/>
      <point x="835" y="546" type="line"/>
      <point x="755" y="546" type="line"/>
      <point x="755" y="179" type="line" smooth="yes"/>
      <point x="755" y="101"/>
      <point x="707" y="58"/>
      <point x="634" y="58" type="curve" smooth="yes"/>
      <point x="562" y="58"/>
      <point x="513" y="101"/>
      <point x="513" y="179" type="curve" smooth="yes"/>
      <point x="513" y="340" type="line" smooth="yes"/>
      <point x="513" y="474"/>
      <point x="432" y="558"/>
      <point x="285" y="558" type="curve" smooth="yes"/>
      <point x="155" y="558"/>
      <point x="57" y="470"/>
      <point x="49" y="348" type="curve"/>
      <point x="134" y="312" type="line"/>
      <point x="134" y="84" type="line" smooth="yes"/>
      <point x="134" y="33"/>
      <point x="163" y="0"/>
      <point x="220" y="0" type="curve" smooth="yes"/>
      <point x="278" y="0" type="line"/>
      <point x="278" y="70" type="line"/>
      <point x="214" y="70" type="line"/>
      <point x="214" y="309" type="line" smooth="yes"/>
      <point x="214" y="338"/>
      <point x="202" y="352"/>
      <point x="173" y="364" type="curve" smooth="yes"/>
      <point x="124" y="384" type="line"/>
      <point x="142" y="449"/>
      <point x="208" y="489"/>
      <point x="286" y="489" type="curve" smooth="yes"/>
      <point x="375" y="489"/>
      <point x="433" y="434"/>
      <point x="433" y="330" type="curve" smooth="yes"/>
      <point x="433" y="180" type="line" smooth="yes"/>
      <point x="433" y="64"/>
      <point x="512" y="-12"/>
    </contour>
    <contour>
      <point x="835.0" y="0.0" type="move" name="bottomright"/>
    </contour>
    <contour>
      <point x="474.0" y="558.0" type="move" name="top"/>
    </contour>
    <contour>
      <point x="835.0" y="600.0" type="move" name="topright"/>
    </contour>
  </outline>
</glyph>
<glyph name="zero-thai.sups" format="1">
  <advance width="430"/>
  <outline>
    <contour>
      <point x="215" y="394" type="curve" smooth="yes" name="hr00"/>
      <point x="155" y="394"/>
      <point x="116" y="429"/>
      <point x="116" y="491" type="curve" smooth="yes"/>
      <point x="116" y="553" type="line" smooth="yes"/>
      <point x="116" y="615"/>
      <point x="155" y="650"/>
      <point x="215" y="650" type="curve" smooth="yes"/>
      <point x="275" y="650"/>
      <point x="314" y="615"/>
      <point x="314" y="553" type="curve" smooth="yes"/>
      <point x="314" y="491" type="line" smooth="yes"/>
      <point x="314" y="429"/>
      <point x="275" y="394"/>
    </contour>
    <contour>
      <point x="215" y="334" type="curve" smooth="yes"/>
      <point x="323" y="334"/>
      <point x="390" y="405"/>
      <point x="390" y="522" type="curve" smooth="yes"/>
      <point x="390" y="639"/>
      <point x="323" y="710"/>
      <point x="215" y="710" type="curve" smooth="yes"/>
      <point x="107" y="710"/>
      <point x="40" y="639"/>
      <point x="40" y="522" type="curve" smooth="yes"/>
      <point x="40" y="405"/>
      <point x="107" y="334"/>
    </contour>
  </outline>
</glyph>
